<?xml version="1.0" encoding="UTF-8" standalone="no"?>
<svg xmlns="http://www.w3.org/2000/svg" xmlns:xlink="http://www.w3.org/1999/xlink" contentScriptType="application/ecmascript" contentStyleType="text/css" height="843px" preserveAspectRatio="none" style="width:884px;height:843px;" version="1.1" viewBox="0 0 884 843" width="884px" zoomAndPan="magnify"><defs><filter height="300%" id="f14ta78erkesxk" width="300%" x="-1" y="-1"><feGaussianBlur result="blurOut" stdDeviation="2.0"/><feColorMatrix in="blurOut" result="blurOut2" type="matrix" values="0 0 0 0 0 0 0 0 0 0 0 0 0 0 0 0 0 0 .4 0"/><feOffset dx="4.0" dy="4.0" in="blurOut2" result="blurOut3"/><feBlend in="SourceGraphic" in2="blurOut3" mode="normal"/></filter></defs><g><rect fill="#FFFF00" filter="url(#f14ta78erkesxk)" height="59.978" rx="12.5" ry="12.5" style="stroke: #A80036; stroke-width: 1.5;" width="260" x="86" y="8"/><line style="stroke: #A80036; stroke-width: 1.5;" x1="86" x2="346" y1="37.989" y2="37.989"/><text fill="#000000" font-family="Courier" font-size="20" font-style="italic" lengthAdjust="spacingAndGlyphs" textLength="120" x="156" y="31.7797">Unexplored</text><text fill="#000000" font-family="Courier" font-size="20" lengthAdjust="spacingAndGlyphs" textLength="240" x="91" y="61.7687">Expand yellow states</text><ellipse cx="391" cy="38" fill="#000000" filter="url(#f14ta78erkesxk)" rx="10" ry="10" style="stroke: none; stroke-width: 1.0;"/><rect fill="#FEFECE" filter="url(#f14ta78erkesxk)" height="59.978" rx="12.5" ry="12.5" style="stroke: #A80036; stroke-width: 1.5;" width="418" x="182" y="129"/><line style="stroke: #A80036; stroke-width: 1.5;" x1="182" x2="600" y1="158.989" y2="158.989"/><text fill="#000000" font-family="Courier" font-size="20" font-style="italic" lengthAdjust="spacingAndGlyphs" textLength="24" x="379" y="152.7797">s0</text><text fill="#000000" font-family="Courier" font-size="20" lengthAdjust="spacingAndGlyphs" textLength="398" x="187" y="182.7687">out(t₁).out(t₂).in(t̄).in(t̄).0 ∥ ∅</text><rect fill="#FEFECE" filter="url(#f14ta78erkesxk)" height="59.978" rx="12.5" ry="12.5" style="stroke: #A80036; stroke-width: 1.5;" width="356" x="213" y="290"/><line style="stroke: #A80036; stroke-width: 1.5;" x1="213" x2="569" y1="319.989" y2="319.989"/><text fill="#000000" font-family="Courier" font-size="20" font-style="italic" lengthAdjust="spacingAndGlyphs" textLength="24" x="379" y="313.7797">s1</text><text fill="#000000" font-family="Courier" font-size="20" lengthAdjust="spacingAndGlyphs" textLength="336" x="218" y="343.7687">out(t₂).in(t̄).in(t̄).0 ∥ 〈t₁〉</text><rect fill="#FEFECE" filter="url(#f14ta78erkesxk)" height="59.978" rx="12.5" ry="12.5" style="stroke: #A80036; stroke-width: 1.5;" width="336" x="35" y="451"/><line style="stroke: #A80036; stroke-width: 1.5;" x1="35" x2="371" y1="480.989" y2="480.989"/><text fill="#000000" font-family="Courier" font-size="20" font-style="italic" lengthAdjust="spacingAndGlyphs" textLength="24" x="191" y="474.7797">s2</text><text fill="#000000" font-family="Courier" font-size="20" lengthAdjust="spacingAndGlyphs" textLength="316" x="40" y="504.7687">out(t₂).in(t̄).in(t̄).0 ∥ t₁</text><rect fill="#FEFECE" filter="url(#f14ta78erkesxk)" height="59.978" rx="12.5" ry="12.5" style="stroke: #A80036; stroke-width: 1.5;" width="348" x="406" y="451"/><line style="stroke: #A80036; stroke-width: 1.5;" x1="406" x2="754" y1="480.989" y2="480.989"/><text fill="#000000" font-family="Courier" font-size="20" font-style="italic" lengthAdjust="spacingAndGlyphs" textLength="24" x="568" y="474.7797">s3</text><text fill="#000000" font-family="Courier" font-size="20" lengthAdjust="spacingAndGlyphs" textLength="328" x="411" y="504.7687">in(t̄).in(t̄).0 ∥ 〈t₁〉 ∪ 〈t₂〉</text><rect fill="#FEFECE" filter="url(#f14ta78erkesxk)" height="59.978" rx="12.5" ry="12.5" style="stroke: #A80036; stroke-width: 1.5;" width="328" x="50" y="612"/><line style="stroke: #A80036; stroke-width: 1.5;" x1="50" x2="378" y1="641.989" y2="641.989"/><text fill="#000000" font-family="Courier" font-size="20" font-style="italic" lengthAdjust="spacingAndGlyphs" textLength="24" x="202" y="635.7797">s4</text><text fill="#000000" font-family="Courier" font-size="20" lengthAdjust="spacingAndGlyphs" textLength="308" x="55" y="665.7687">in(t̄).in(t̄).0 ∥ t₁ ∪ 〈t₂〉</text><rect fill="#FEFECE" filter="url(#f14ta78erkesxk)" height="59.978" rx="12.5" ry="12.5" style="stroke: #A80036; stroke-width: 1.5;" width="328" x="416" y="612"/><line style="stroke: #A80036; stroke-width: 1.5;" x1="416" x2="744" y1="641.989" y2="641.989"/><text fill="#000000" font-family="Courier" font-size="20" font-style="italic" lengthAdjust="spacingAndGlyphs" textLength="24" x="568" y="635.7797">s5</text><text fill="#000000" font-family="Courier" font-size="20" lengthAdjust="spacingAndGlyphs" textLength="308" x="421" y="665.7687">in(t̄).in(t̄).0 ∥ 〈t₁〉 ∪ t₂</text><rect fill="#FFFF00" filter="url(#f14ta78erkesxk)" height="59.978" rx="12.5" ry="12.5" style="stroke: #A80036; stroke-width: 1.5;" width="244" x="6" y="773"/><line style="stroke: #A80036; stroke-width: 1.5;" x1="6" x2="250" y1="802.989" y2="802.989"/><text fill="#000000" font-family="Courier" font-size="20" font-style="italic" lengthAdjust="spacingAndGlyphs" textLength="24" x="116" y="796.7797">s6</text><text fill="#000000" font-family="Courier" font-size="20" lengthAdjust="spacingAndGlyphs" textLength="224" x="11" y="826.7687">〈t₁〉.in(t̄).0 ∥ 〈t₂〉</text><rect fill="#FFFF00" filter="url(#f14ta78erkesxk)" height="59.978" rx="12.5" ry="12.5" style="stroke: #A80036; stroke-width: 1.5;" width="308" x="285" y="773"/><line style="stroke: #A80036; stroke-width: 1.5;" x1="285" x2="593" y1="802.989" y2="802.989"/><text fill="#000000" font-family="Courier" font-size="20" font-style="italic" lengthAdjust="spacingAndGlyphs" textLength="24" x="427" y="796.7797">s7</text><text fill="#000000" font-family="Courier" font-size="20" lengthAdjust="spacingAndGlyphs" textLength="288" x="290" y="826.7687">in(t̄).in(t̄).0 ∥ t₁ ∪ t₂</text><rect fill="#FFFF00" filter="url(#f14ta78erkesxk)" height="59.978" rx="12.5" ry="12.5" style="stroke: #A80036; stroke-width: 1.5;" width="244" x="628" y="773"/><line style="stroke: #A80036; stroke-width: 1.5;" x1="628" x2="872" y1="802.989" y2="802.989"/><text fill="#000000" font-family="Courier" font-size="20" font-style="italic" lengthAdjust="spacingAndGlyphs" textLength="24" x="738" y="796.7797">s8</text><text fill="#000000" font-family="Courier" font-size="20" lengthAdjust="spacingAndGlyphs" textLength="224" x="633" y="826.7687">〈t₂〉.in(t̄).0 ∥ 〈t₁〉</text><!--link *start to s0--><path d="M391,48.338 C391,64.416 391,98.085 391,123.9 " fill="none" id="*start-s0" style="stroke: #A80036; stroke-width: 1.0;"/><polygon fill="#A80036" points="391,128.951,395,119.951,391,123.951,387,119.951,391,128.951" style="stroke: #A80036; stroke-width: 1.0;"/><!--link s0 to s1--><path d="M391,189.163 C391,216.086 391,256.094 391,284.575 " fill="none" id="s0-s1" style="stroke: #A80036; stroke-width: 1.0;"/><polygon fill="#A80036" points="391,289.753,395,280.753,391,284.753,387,280.753,391,289.753" style="stroke: #A80036; stroke-width: 1.0;"/><text fill="#000000" font-family="Courier" font-size="20" lengthAdjust="spacingAndGlyphs" textLength="82" x="392" y="238.7797">out(t₁)</text><text fill="#000000" font-family="Courier" font-size="20" lengthAdjust="spacingAndGlyphs" textLength="70" x="398" y="258.7687">[OUT₁]</text><!--link s1 to s2--><path d="M356.518,350.163 C324.024,377.645 275.41,418.76 241.626,447.333 " fill="none" id="s1-s2" style="stroke: #A80036; stroke-width: 1.0;"/><polygon fill="#A80036" points="237.581,450.753,247.0358,447.995,241.3986,447.5241,241.8695,441.8868,237.581,450.753" style="stroke: #A80036; stroke-width: 1.0;"/><text fill="#000000" font-family="Courier" font-size="20" lengthAdjust="spacingAndGlyphs" textLength="10" x="363" y="399.7797">τ</text><text fill="#000000" font-family="Courier" font-size="20" lengthAdjust="spacingAndGlyphs" textLength="96" x="320" y="419.7687">[INSERT]</text><!--link s1 to s3--><path d="M425.666,350.163 C458.333,377.645 507.205,418.76 541.169,447.333 " fill="none" id="s1-s3" style="stroke: #A80036; stroke-width: 1.0;"/><polygon fill="#A80036" points="545.235,450.753,540.9232,441.8982,541.4089,447.5341,535.773,448.0199,545.235,450.753" style="stroke: #A80036; stroke-width: 1.0;"/><text fill="#000000" font-family="Courier" font-size="20" lengthAdjust="spacingAndGlyphs" textLength="82" x="508" y="399.7797">out(t₂)</text><text fill="#000000" font-family="Courier" font-size="20" lengthAdjust="spacingAndGlyphs" textLength="70" x="514" y="419.7687">[OUT₁]</text><!--link s2 to s4--><path d="M205.018,511.163 C206.88,538.086 209.648,578.094 211.618,606.575 " fill="none" id="s2-s4" style="stroke: #A80036; stroke-width: 1.0;"/><polygon fill="#A80036" points="211.977,611.753,215.345,602.4979,211.6312,606.765,207.3642,603.0512,211.977,611.753" style="stroke: #A80036; stroke-width: 1.0;"/><text fill="#000000" font-family="Courier" font-size="20" lengthAdjust="spacingAndGlyphs" textLength="82" x="210" y="560.7797">out(t₂)</text><text fill="#000000" font-family="Courier" font-size="20" lengthAdjust="spacingAndGlyphs" textLength="70" x="216" y="580.7687">[OUT₁]</text><!--link s3 to s4--><path d="M512.87,511.163 C448.48,539.136 351.578,581.232 285.702,609.851 " fill="none" id="s3-s4" style="stroke: #A80036; stroke-width: 1.0;"/><polygon fill="#A80036" points="281.014,611.888,290.8625,611.9694,285.5997,609.8952,287.674,604.6323,281.014,611.888" style="stroke: #A80036; stroke-width: 1.0;"/><text fill="#000000" font-family="Courier" font-size="20" lengthAdjust="spacingAndGlyphs" textLength="10" x="484" y="560.7797">τ</text><text fill="#000000" font-family="Courier" font-size="20" lengthAdjust="spacingAndGlyphs" textLength="96" x="441" y="580.7687">[INSERT]</text><!--link s3 to s5--><path d="M580,511.163 C580,538.086 580,578.094 580,606.575 " fill="none" id="s3-s5" style="stroke: #A80036; stroke-width: 1.0;"/><polygon fill="#A80036" points="580,611.753,584,602.753,580,606.753,576,602.753,580,611.753" style="stroke: #A80036; stroke-width: 1.0;"/><text fill="#000000" font-family="Courier" font-size="20" lengthAdjust="spacingAndGlyphs" textLength="10" x="624" y="560.7797">τ</text><text fill="#000000" font-family="Courier" font-size="20" lengthAdjust="spacingAndGlyphs" textLength="96" x="581" y="580.7687">[INSERT]</text><!--link s4 to s6--><path d="M198.226,672.163 C183.543,699.31 161.665,739.7592 146.238,768.2816 " fill="none" id="s4-s6" style="stroke: #A80036; stroke-width: 1.0;"/><polygon fill="#A80036" points="143.819,772.753,151.6196,766.7405,146.1982,768.3553,144.5833,762.9338,143.819,772.753" style="stroke: #A80036; stroke-width: 1.0;"/><text fill="#000000" font-family="Courier" font-size="20" lengthAdjust="spacingAndGlyphs" textLength="70" x="183" y="721.7797">in(t₁)</text><text fill="#000000" font-family="Courier" font-size="20" lengthAdjust="spacingAndGlyphs" textLength="58" x="189" y="741.7687">[IN₁]</text><!--link s4 to s7--><path d="M255.268,672.163 C294.316,699.757 352.813,741.0944 393.265,769.6803 " fill="none" id="s4-s7" style="stroke: #A80036; stroke-width: 1.0;"/><polygon fill="#A80036" points="397.613,772.753,392.5717,764.2922,393.5298,769.8673,387.9546,770.8254,397.613,772.753" style="stroke: #A80036; stroke-width: 1.0;"/><text fill="#000000" font-family="Courier" font-size="20" lengthAdjust="spacingAndGlyphs" textLength="10" x="397" y="721.7797">τ</text><text fill="#000000" font-family="Courier" font-size="20" lengthAdjust="spacingAndGlyphs" textLength="96" x="354" y="741.7687">[INSERT]</text><!--link s5 to s7--><path d="M554.138,672.163 C529.867,699.533 493.603,740.4259 468.279,768.9834 " fill="none" id="s5-s7" style="stroke: #A80036; stroke-width: 1.0;"/><polygon fill="#A80036" points="464.936,772.753,473.8999,768.6727,468.2532,769.0118,467.914,763.3652,464.936,772.753" style="stroke: #A80036; stroke-width: 1.0;"/><text fill="#000000" font-family="Courier" font-size="20" lengthAdjust="spacingAndGlyphs" textLength="10" x="570" y="721.7797">τ</text><text fill="#000000" font-family="Courier" font-size="20" lengthAdjust="spacingAndGlyphs" textLength="96" x="527" y="741.7687">[INSERT]</text><!--link s5 to s8--><path d="M611.181,672.163 C640.564,699.645 684.523,740.7599 715.072,769.3325 " fill="none" id="s5-s8" style="stroke: #A80036; stroke-width: 1.0;"/><polygon fill="#A80036" points="718.73,772.753,714.8878,763.6845,715.0777,769.3382,709.4241,769.5282,718.73,772.753" style="stroke: #A80036; stroke-width: 1.0;"/><text fill="#000000" font-family="Courier" font-size="20" lengthAdjust="spacingAndGlyphs" textLength="70" x="686" y="721.7797">in(t₂)</text><text fill="#000000" font-family="Courier" font-size="20" lengthAdjust="spacingAndGlyphs" textLength="58" x="692" y="741.7687">[IN₁]</text><!--
@startuml
skinparam DefaultFontSize 20
skinparam StateFontStyle italics
skinparam DefaultFontName Courier
hide empty description

skinparam state {
  BackgroundColor<<Ending>> olive
  BackgroundColor<<Unexplored>> yellow
}

state Unexplored <<Unexplored>>: Expand yellow states

[*] - -> s0
state s0: out(t₁).out(t₂).in(t̄).in(t̄).0 ∥ ∅
s0 - -> s1: out(t₁)\n[OUT₁]

state s1: out(t₂).in(t̄).in(t̄).0 ∥ 〈t₁〉
s1 - -> s2: τ\n[INSERT]
s1 - -> s3: out(t₂)\n[OUT₁]

state s2 : out(t₂).in(t̄).in(t̄).0 ∥ t₁
s2 - -> s4 : out(t₂)\n[OUT₁]

state s3 : in(t̄).in(t̄).0 ∥ 〈t₁〉 ∪ 〈t₂〉
s3 - -> s4: τ\n[INSERT]
s3 - -> s5: τ\n[INSERT]

state s4 : in(t̄).in(t̄).0 ∥ t₁ ∪ 〈t₂〉
s4 - -> s6: in(t₁)\n[IN₁]
s4 - -> s7: τ\n[INSERT]

state s5 : in(t̄).in(t̄).0 ∥ 〈t₁〉 ∪ t₂
s5 - -> s7: τ\n[INSERT]
s5 - -> s8: in(t₂)\n[IN₁]

state s6 <<Unexplored>> : 〈t₁〉.in(t̄).0 ∥ 〈t₂〉
state s7 <<Unexplored>> : in(t̄).in(t̄).0 ∥ t₁ ∪ t₂

state s8 <<Unexplored>> : 〈t₂〉.in(t̄).0 ∥ 〈t₁〉
@enduml

PlantUML version 1.2018.12(Sun Oct 21 10:15:15 UTC 2018)
(GPL source distribution)
Java Runtime: Java(TM) SE Runtime Environment
JVM: Java HotSpot(TM) 64-Bit Server VM
Java Version: 1.7.0_25-b15
Operating System: Linux
Default Encoding: UTF-8
Language: en
Country: US
--></g></svg>