<?xml version="1.0" encoding="UTF-8" standalone="no"?>
<svg xmlns="http://www.w3.org/2000/svg" xmlns:xlink="http://www.w3.org/1999/xlink" contentScriptType="application/ecmascript" contentStyleType="text/css" height="1185px" preserveAspectRatio="none" style="width:956px;height:1185px;" version="1.1" viewBox="0 0 956 1185" width="956px" zoomAndPan="magnify"><defs><filter height="300%" id="f105ntwlatyjxo" width="300%" x="-1" y="-1"><feGaussianBlur result="blurOut" stdDeviation="2.0"/><feColorMatrix in="blurOut" result="blurOut2" type="matrix" values="0 0 0 0 0 0 0 0 0 0 0 0 0 0 0 0 0 0 .4 0"/><feOffset dx="4.0" dy="4.0" in="blurOut2" result="blurOut3"/><feBlend in="SourceGraphic" in2="blurOut3" mode="normal"/></filter></defs><g><rect fill="#808000" filter="url(#f105ntwlatyjxo)" height="79.967" rx="12.5" ry="12.5" style="stroke: #A80036; stroke-width: 1.5;" width="308" x="16" y="8"/><line style="stroke: #A80036; stroke-width: 1.5;" x1="16" x2="324" y1="37.989" y2="37.989"/><text fill="#000000" font-family="Courier" font-size="20" font-style="italic" lengthAdjust="spacingAndGlyphs" textLength="132" x="104" y="31.7797">EndingState</text><text fill="#000000" font-family="Courier" font-size="20" lengthAdjust="spacingAndGlyphs" textLength="288" x="21" y="61.7687">Where no more transition</text><text fill="#000000" font-family="Courier" font-size="20" lengthAdjust="spacingAndGlyphs" textLength="240" x="21" y="81.7577">rules can be applied</text><ellipse cx="369" cy="48" fill="#000000" filter="url(#f105ntwlatyjxo)" rx="10" ry="10" style="stroke: none; stroke-width: 1.0;"/><rect fill="#FEFECE" filter="url(#f105ntwlatyjxo)" height="59.978" rx="12.5" ry="12.5" style="stroke: #A80036; stroke-width: 1.5;" width="438" x="150" y="149"/><line style="stroke: #A80036; stroke-width: 1.5;" x1="150" x2="588" y1="178.989" y2="178.989"/><text fill="#000000" font-family="Courier" font-size="20" font-style="italic" lengthAdjust="spacingAndGlyphs" textLength="24" x="357" y="172.7797">s0</text><text fill="#000000" font-family="Courier" font-size="20" lengthAdjust="spacingAndGlyphs" textLength="418" x="155" y="202.7687">out(t1).0 ∥ in(t̄).0 ∥ rd(t̄).0 ∥ ∅</text><rect fill="#FEFECE" filter="url(#f105ntwlatyjxo)" height="59.978" rx="12.5" ry="12.5" style="stroke: #A80036; stroke-width: 1.5;" width="364" x="187" y="310"/><line style="stroke: #A80036; stroke-width: 1.5;" x1="187" x2="551" y1="339.989" y2="339.989"/><text fill="#000000" font-family="Courier" font-size="20" font-style="italic" lengthAdjust="spacingAndGlyphs" textLength="24" x="357" y="333.7797">s1</text><text fill="#000000" font-family="Courier" font-size="20" lengthAdjust="spacingAndGlyphs" textLength="344" x="192" y="363.7687">0 ∥ in(t̄).0 ∥ rd(t̄).0 ∥ 〈t〉</text><rect fill="#FEFECE" filter="url(#f105ntwlatyjxo)" height="59.978" rx="12.5" ry="12.5" style="stroke: #A80036; stroke-width: 1.5;" width="344" x="197" y="471"/><line style="stroke: #A80036; stroke-width: 1.5;" x1="197" x2="541" y1="500.989" y2="500.989"/><text fill="#000000" font-family="Courier" font-size="20" font-style="italic" lengthAdjust="spacingAndGlyphs" textLength="24" x="357" y="494.7797">s2</text><text fill="#000000" font-family="Courier" font-size="20" lengthAdjust="spacingAndGlyphs" textLength="324" x="202" y="524.7687">0 ∥ in(t̄).0 ∥ rd(t̄).0 ∥ t</text><rect fill="#FEFECE" filter="url(#f105ntwlatyjxo)" height="59.978" rx="12.5" ry="12.5" style="stroke: #A80036; stroke-width: 1.5;" width="314" x="6" y="632"/><line style="stroke: #A80036; stroke-width: 1.5;" x1="6" x2="320" y1="661.989" y2="661.989"/><text fill="#000000" font-family="Courier" font-size="20" font-style="italic" lengthAdjust="spacingAndGlyphs" textLength="24" x="151" y="655.7797">s3</text><text fill="#000000" font-family="Courier" font-size="20" lengthAdjust="spacingAndGlyphs" textLength="294" x="11" y="685.7687">0 ∥ 〈t〉.0 ∥ rd(t̄).0 ∥ ∅</text><rect fill="#FEFECE" filter="url(#f105ntwlatyjxo)" height="59.978" rx="12.5" ry="12.5" style="stroke: #A80036; stroke-width: 1.5;" width="316" x="355" y="632"/><line style="stroke: #A80036; stroke-width: 1.5;" x1="355" x2="671" y1="661.989" y2="661.989"/><text fill="#000000" font-family="Courier" font-size="20" font-style="italic" lengthAdjust="spacingAndGlyphs" textLength="24" x="501" y="655.7797">s4</text><text fill="#000000" font-family="Courier" font-size="20" lengthAdjust="spacingAndGlyphs" textLength="296" x="360" y="685.7687">0 ∥ in(t̄).0 ∥ 〈t〉.0 ∥ t</text><rect fill="#808000" filter="url(#f105ntwlatyjxo)" height="59.978" rx="12.5" ry="12.5" style="stroke: #A80036; stroke-width: 1.5;" width="270" x="28" y="793"/><line style="stroke: #A80036; stroke-width: 1.5;" x1="28" x2="298" y1="822.989" y2="822.989"/><text fill="#000000" font-family="Courier" font-size="20" font-style="italic" lengthAdjust="spacingAndGlyphs" textLength="24" x="151" y="816.7797">s5</text><text fill="#000000" font-family="Courier" font-size="20" lengthAdjust="spacingAndGlyphs" textLength="250" x="33" y="846.7687">0 ∥ 0 ∥ rd(t̄).0 ∥ ∅</text><rect fill="#FEFECE" filter="url(#f105ntwlatyjxo)" height="59.978" rx="12.5" ry="12.5" style="stroke: #A80036; stroke-width: 1.5;" width="286" x="351" y="793"/><line style="stroke: #A80036; stroke-width: 1.5;" x1="351" x2="637" y1="822.989" y2="822.989"/><text fill="#000000" font-family="Courier" font-size="20" font-style="italic" lengthAdjust="spacingAndGlyphs" textLength="24" x="482" y="816.7797">s6</text><text fill="#000000" font-family="Courier" font-size="20" lengthAdjust="spacingAndGlyphs" textLength="266" x="356" y="846.7687">0 ∥ 〈t〉.0 ∥ 〈t〉.0 ∥ ∅</text><rect fill="#FEFECE" filter="url(#f105ntwlatyjxo)" height="59.978" rx="12.5" ry="12.5" style="stroke: #A80036; stroke-width: 1.5;" width="272" x="672" y="793"/><line style="stroke: #A80036; stroke-width: 1.5;" x1="672" x2="944" y1="822.989" y2="822.989"/><text fill="#000000" font-family="Courier" font-size="20" font-style="italic" lengthAdjust="spacingAndGlyphs" textLength="24" x="796" y="816.7797">s7</text><text fill="#000000" font-family="Courier" font-size="20" lengthAdjust="spacingAndGlyphs" textLength="252" x="677" y="846.7687">0 ∥ in(t̄).0 ∥ 0 ∥ t</text><rect fill="#FEFECE" filter="url(#f105ntwlatyjxo)" height="59.978" rx="12.5" ry="12.5" style="stroke: #A80036; stroke-width: 1.5;" width="242" x="367" y="954"/><line style="stroke: #A80036; stroke-width: 1.5;" x1="367" x2="609" y1="983.989" y2="983.989"/><text fill="#000000" font-family="Courier" font-size="20" font-style="italic" lengthAdjust="spacingAndGlyphs" textLength="24" x="476" y="977.7797">s8</text><text fill="#000000" font-family="Courier" font-size="20" lengthAdjust="spacingAndGlyphs" textLength="222" x="372" y="1007.7687">0 ∥ 0 ∥ 〈t〉.0 ∥ ∅</text><rect fill="#FEFECE" filter="url(#f105ntwlatyjxo)" height="59.978" rx="12.5" ry="12.5" style="stroke: #A80036; stroke-width: 1.5;" width="242" x="644" y="954"/><line style="stroke: #A80036; stroke-width: 1.5;" x1="644" x2="886" y1="983.989" y2="983.989"/><text fill="#000000" font-family="Courier" font-size="20" font-style="italic" lengthAdjust="spacingAndGlyphs" textLength="24" x="753" y="977.7797">s9</text><text fill="#000000" font-family="Courier" font-size="20" lengthAdjust="spacingAndGlyphs" textLength="222" x="649" y="1007.7687">0 ∥ 〈t〉.0 ∥ 0 ∥ ∅</text><rect fill="#808000" filter="url(#f105ntwlatyjxo)" height="59.978" rx="12.5" ry="12.5" style="stroke: #A80036; stroke-width: 1.5;" width="198" x="541" y="1115"/><line style="stroke: #A80036; stroke-width: 1.5;" x1="541" x2="739" y1="1144.989" y2="1144.989"/><text fill="#000000" font-family="Courier" font-size="20" font-style="italic" lengthAdjust="spacingAndGlyphs" textLength="36" x="622" y="1138.7797">s10</text><text fill="#000000" font-family="Courier" font-size="20" lengthAdjust="spacingAndGlyphs" textLength="178" x="546" y="1168.7687">0 ∥ 0 ∥ 0 ∥ ∅</text><!--link *start to s0--><path d="M369,58.28 C369,75.9 369,115.01 369,143.76 " fill="none" id="*start-s0" style="stroke: #A80036; stroke-width: 1.0;"/><polygon fill="#A80036" points="369,149,373,140,369,144,365,140,369,149" style="stroke: #A80036; stroke-width: 1.0;"/><!--link s0 to s1--><path d="M369,209.163 C369,236.086 369,276.094 369,304.575 " fill="none" id="s0-s1" style="stroke: #A80036; stroke-width: 1.0;"/><polygon fill="#A80036" points="369,309.753,373,300.753,369,304.753,365,300.753,369,309.753" style="stroke: #A80036; stroke-width: 1.0;"/><text fill="#000000" font-family="Courier" font-size="20" lengthAdjust="spacingAndGlyphs" textLength="72" x="370" y="258.7797">out(t)</text><text fill="#000000" font-family="Courier" font-size="20" lengthAdjust="spacingAndGlyphs" textLength="70" x="371" y="278.7687">[OUT₁]</text><!--link s1 to s2--><path d="M369,370.163 C369,397.086 369,437.094 369,465.575 " fill="none" id="s1-s2" style="stroke: #A80036; stroke-width: 1.0;"/><polygon fill="#A80036" points="369,470.753,373,461.753,369,465.753,365,461.753,369,470.753" style="stroke: #A80036; stroke-width: 1.0;"/><text fill="#000000" font-family="Courier" font-size="20" lengthAdjust="spacingAndGlyphs" textLength="10" x="413" y="419.7797">τ</text><text fill="#000000" font-family="Courier" font-size="20" lengthAdjust="spacingAndGlyphs" textLength="96" x="370" y="439.7687">[INSERT]</text><!--link s2 to s3--><path d="M331.216,531.163 C295.466,558.757 241.909,600.094 204.873,628.68 " fill="none" id="s2-s3" style="stroke: #A80036; stroke-width: 1.0;"/><polygon fill="#A80036" points="200.892,631.753,210.4601,629.4183,204.8494,628.6971,205.5706,623.0864,200.892,631.753" style="stroke: #A80036; stroke-width: 1.0;"/><text fill="#000000" font-family="Courier" font-size="20" lengthAdjust="spacingAndGlyphs" textLength="60" x="291" y="580.7797">in(t)</text><text fill="#000000" font-family="Courier" font-size="20" lengthAdjust="spacingAndGlyphs" textLength="58" x="292" y="600.7687">[IN₂]</text><!--link s2 to s4--><path d="M395.412,531.163 C420.2,558.533 457.235,599.426 483.098,627.983 " fill="none" id="s2-s4" style="stroke: #A80036; stroke-width: 1.0;"/><polygon fill="#A80036" points="486.512,631.753,483.4339,622.3975,483.155,628.0475,477.5051,627.7686,486.512,631.753" style="stroke: #A80036; stroke-width: 1.0;"/><text fill="#000000" font-family="Courier" font-size="20" lengthAdjust="spacingAndGlyphs" textLength="60" x="459" y="580.7797">rd(t)</text><text fill="#000000" font-family="Courier" font-size="20" lengthAdjust="spacingAndGlyphs" textLength="58" x="460" y="600.7687">[RD₃]</text><!--link s3 to s5--><path d="M163,692.163 C163,719.086 163,759.094 163,787.575 " fill="none" id="s3-s5" style="stroke: #A80036; stroke-width: 1.0;"/><polygon fill="#A80036" points="163,792.753,167,783.753,163,787.753,159,783.753,163,792.753" style="stroke: #A80036; stroke-width: 1.0;"/><text fill="#000000" font-family="Courier" font-size="20" lengthAdjust="spacingAndGlyphs" textLength="10" x="218" y="741.7797">τ</text><text fill="#000000" font-family="Courier" font-size="20" lengthAdjust="spacingAndGlyphs" textLength="118" x="164" y="761.7687">[COMPUTE₂]</text><!--link s4 to s6--><path d="M509.515,692.163 C506.298,719.086 501.517,759.094 498.114,787.575 " fill="none" id="s4-s6" style="stroke: #A80036; stroke-width: 1.0;"/><polygon fill="#A80036" points="497.495,792.753,502.534,784.2908,498.0879,787.7883,494.5905,783.3422,497.495,792.753" style="stroke: #A80036; stroke-width: 1.0;"/><text fill="#000000" font-family="Courier" font-size="20" lengthAdjust="spacingAndGlyphs" textLength="60" x="506" y="741.7797">in(t)</text><text fill="#000000" font-family="Courier" font-size="20" lengthAdjust="spacingAndGlyphs" textLength="58" x="507" y="761.7687">[IN₂]</text><!--link s4 to s7--><path d="M567.108,692.163 C618.799,720.024 696.486,761.896 749.569,790.507 " fill="none" id="s4-s7" style="stroke: #A80036; stroke-width: 1.0;"/><polygon fill="#A80036" points="753.986,792.888,747.9601,785.0977,749.5842,790.5164,744.1655,792.1405,753.986,792.888" style="stroke: #A80036; stroke-width: 1.0;"/><text fill="#000000" font-family="Courier" font-size="20" lengthAdjust="spacingAndGlyphs" textLength="10" x="750" y="741.7797">τ</text><text fill="#000000" font-family="Courier" font-size="20" lengthAdjust="spacingAndGlyphs" textLength="118" x="696" y="761.7687">[COMPUTE₃]</text><!--link s6 to s8--><path d="M488.682,853.009 C487.176,862.529 485.744,873.185 485,883 C483.355,904.688 484.038,929.087 485.164,948.354 " fill="none" id="s6-s8" style="stroke: #A80036; stroke-width: 1.0;"/><polygon fill="#A80036" points="485.492,953.646,488.9263,944.4153,485.182,948.6556,480.9417,944.9113,485.492,953.646" style="stroke: #A80036; stroke-width: 1.0;"/><text fill="#000000" font-family="Courier" font-size="20" lengthAdjust="spacingAndGlyphs" textLength="10" x="540" y="902.7797">τ</text><text fill="#000000" font-family="Courier" font-size="20" lengthAdjust="spacingAndGlyphs" textLength="118" x="486" y="922.7687">[COMPUTE₂]</text><!--link s6 to s9--><path d="M558.489,853.137 C575.467,861.855 593.389,872.041 609,883 C630.877,898.358 631.206,908.524 653,924 C666.966,933.917 682.809,943.264 698.091,951.47 " fill="none" id="s6-s9" style="stroke: #A80036; stroke-width: 1.0;"/><polygon fill="#A80036" points="702.814,953.979,696.7424,946.2243,698.3984,951.6333,692.9893,953.2893,702.814,953.979" style="stroke: #A80036; stroke-width: 1.0;"/><text fill="#000000" font-family="Courier" font-size="20" lengthAdjust="spacingAndGlyphs" textLength="10" x="708" y="902.7797">τ</text><text fill="#000000" font-family="Courier" font-size="20" lengthAdjust="spacingAndGlyphs" textLength="118" x="654" y="922.7687">[COMPUTE₃]</text><!--link s7 to s9--><path d="M800.113,853.163 C792.832,880.086 782.012,920.094 774.31,948.575 " fill="none" id="s7-s9" style="stroke: #A80036; stroke-width: 1.0;"/><polygon fill="#A80036" points="772.91,953.753,779.1197,946.1084,774.2146,948.9262,771.3968,944.0211,772.91,953.753" style="stroke: #A80036; stroke-width: 1.0;"/><text fill="#000000" font-family="Courier" font-size="20" lengthAdjust="spacingAndGlyphs" textLength="60" x="792" y="902.7797">in(t)</text><text fill="#000000" font-family="Courier" font-size="20" lengthAdjust="spacingAndGlyphs" textLength="58" x="793" y="922.7687">[IN₂]</text><!--link s8 to s10--><path d="M505.058,1014.034 C518.23,1035.076 537.751,1063.492 559,1085 C568.391,1094.5055 579.438,1103.6181 590.302,1111.7178 " fill="none" id="s8-s10" style="stroke: #A80036; stroke-width: 1.0;"/><polygon fill="#A80036" points="594.614,1114.8883,589.7338,1106.3336,590.5861,1111.9258,584.9938,1112.7782,594.614,1114.8883" style="stroke: #A80036; stroke-width: 1.0;"/><text fill="#000000" font-family="Courier" font-size="20" lengthAdjust="spacingAndGlyphs" textLength="10" x="614" y="1063.7797">τ</text><text fill="#000000" font-family="Courier" font-size="20" lengthAdjust="spacingAndGlyphs" textLength="118" x="560" y="1083.7687">[COMPUTE₃]</text><!--link s9 to s10--><path d="M742.073,1014.163 C720.643,1041.422 688.67,1082.0923 666.232,1110.6331 " fill="none" id="s9-s10" style="stroke: #A80036; stroke-width: 1.0;"/><polygon fill="#A80036" points="662.993,1114.753,671.6996,1110.1492,666.0829,1110.822,665.4101,1105.2053,662.993,1114.753" style="stroke: #A80036; stroke-width: 1.0;"/><text fill="#000000" font-family="Courier" font-size="20" lengthAdjust="spacingAndGlyphs" textLength="10" x="772" y="1063.7797">τ</text><text fill="#000000" font-family="Courier" font-size="20" lengthAdjust="spacingAndGlyphs" textLength="118" x="718" y="1083.7687">[COMPUTE₂]</text><!--
@startuml
skinparam DefaultFontSize 20
skinparam StateFontStyle italics
skinparam DefaultFontName Courier
hide empty description

skinparam state {
  BackgroundColor<<Ending>> olive
}

state EndingState <<Ending>>: Where no more transition\nrules can be applied

[*] - -> s0
state s0: out(t1).0 ∥ in(t̄).0 ∥ rd(t̄).0 ∥ ∅
s0 - -> s1: out(t)\n[OUT₁]

state s1: 0 ∥ in(t̄).0 ∥ rd(t̄).0 ∥ 〈t〉
s1 - -> s2: τ\n[INSERT]

state s2: 0 ∥ in(t̄).0 ∥ rd(t̄).0 ∥ t
s2 - -> s3: in(t)\n[IN₂]
s2 - -> s4: rd(t)\n[RD₃]

state s3: 0 ∥ 〈t〉.0 ∥ rd(t̄).0 ∥ ∅
s3 - -> s5: τ\n[COMPUTE₂]

state s4: 0 ∥ in(t̄).0 ∥ 〈t〉.0 ∥ t
s4 - -> s6: in(t)\n[IN₂]
s4 - -> s7: τ\n[COMPUTE₃]

state s5 <<Ending>>: 0 ∥ 0 ∥ rd(t̄).0 ∥ ∅

state s6: 0 ∥ 〈t〉.0 ∥ 〈t〉.0 ∥ ∅
s6 - -> s8: τ\n[COMPUTE₂]
s6 - -> s9: τ\n[COMPUTE₃]

state s7: 0 ∥ in(t̄).0 ∥ 0 ∥ t
s7 - -> s9: in(t)\n[IN₂]

state s8: 0 ∥ 0 ∥ 〈t〉.0 ∥ ∅
s8 - -> s10: τ\n[COMPUTE₃]

state s9: 0 ∥ 〈t〉.0 ∥ 0 ∥ ∅
s9 - -> s10: τ\n[COMPUTE₂]

state s10 <<Ending>>: 0 ∥ 0 ∥ 0 ∥ ∅
@enduml

PlantUML version 1.2018.12(Sun Oct 21 10:15:15 UTC 2018)
(GPL source distribution)
Java Runtime: Java(TM) SE Runtime Environment
JVM: Java HotSpot(TM) 64-Bit Server VM
Java Version: 1.7.0_25-b15
Operating System: Linux
Default Encoding: UTF-8
Language: en
Country: US
--></g></svg>