<?xml version="1.0" encoding="UTF-8" standalone="no"?>
<svg xmlns="http://www.w3.org/2000/svg" xmlns:xlink="http://www.w3.org/1999/xlink" contentScriptType="application/ecmascript" contentStyleType="text/css" height="922px" preserveAspectRatio="none" style="width:3268px;height:922px;" version="1.1" viewBox="0 0 3268 922" width="3268px" zoomAndPan="magnify"><defs><filter height="300%" id="fsyelse7e8p8e" width="300%" x="-1" y="-1"><feGaussianBlur result="blurOut" stdDeviation="2.0"/><feColorMatrix in="blurOut" result="blurOut2" type="matrix" values="0 0 0 0 0 0 0 0 0 0 0 0 0 0 0 0 0 0 .4 0"/><feOffset dx="4.0" dy="4.0" in="blurOut2" result="blurOut3"/><feBlend in="SourceGraphic" in2="blurOut3" mode="normal"/></filter></defs><g><rect fill="#FF0000" filter="url(#fsyelse7e8p8e)" height="59.978" rx="12.5" ry="12.5" style="stroke: #A80036; stroke-width: 1.5;" width="188" x="979" y="8"/><line style="stroke: #A80036; stroke-width: 1.5;" x1="979" x2="1167" y1="37.989" y2="37.989"/><text fill="#000000" font-family="Courier" font-size="20" font-style="italic" lengthAdjust="spacingAndGlyphs" textLength="96" x="1025" y="31.7797">Deadlock</text><text fill="#000000" font-family="Courier" font-size="20" lengthAdjust="spacingAndGlyphs" textLength="168" x="984" y="61.7687">TODO notice it</text><ellipse cx="1212" cy="38" fill="#000000" filter="url(#fsyelse7e8p8e)" rx="10" ry="10" style="stroke: none; stroke-width: 1.0;"/><rect fill="#FEFECE" filter="url(#fsyelse7e8p8e)" height="119.9451" rx="12.5" ry="12.5" style="stroke: #A80036; stroke-width: 1.5;" width="464" x="980" y="129"/><line style="stroke: #A80036; stroke-width: 1.5;" x1="980" x2="1444" y1="158.989" y2="158.989"/><text fill="#000000" font-family="Courier" font-size="20" font-style="italic" lengthAdjust="spacingAndGlyphs" textLength="24" x="1200" y="152.7797">s0</text><text fill="#000000" font-family="Courier" font-size="20" lengthAdjust="spacingAndGlyphs" textLength="364" x="985" y="182.7687">in(t̄₁).in(t̄₂).out(t₁).out(t₂).0</text><text fill="#000000" font-family="Courier" font-size="20" lengthAdjust="spacingAndGlyphs" textLength="396" x="1009" y="202.7577">∥ in(t̄₂).in(t̄₃).out(t₂).out(t₃).0</text><text fill="#000000" font-family="Courier" font-size="20" lengthAdjust="spacingAndGlyphs" textLength="396" x="1033" y="222.7467">∥ in(t̄₃).in(t̄₁).out(t₃).out(t₁).0</text><text fill="#000000" font-family="Courier" font-size="20" lengthAdjust="spacingAndGlyphs" textLength="186" x="1057" y="242.7357">∥ t₁ ∪ t₂ ∪ t₃</text><rect fill="#FEFECE" filter="url(#fsyelse7e8p8e)" height="119.9451" rx="12.5" ry="12.5" style="stroke: #A80036; stroke-width: 1.5;" width="464" x="493" y="350"/><line style="stroke: #A80036; stroke-width: 1.5;" x1="493" x2="957" y1="379.989" y2="379.989"/><text fill="#000000" font-family="Courier" font-size="20" font-style="italic" lengthAdjust="spacingAndGlyphs" textLength="24" x="713" y="373.7797">s1</text><text fill="#000000" font-family="Courier" font-size="20" lengthAdjust="spacingAndGlyphs" textLength="282" x="498" y="403.7687">in(t̄₂).out(t₁).out(t₂).0</text><text fill="#000000" font-family="Courier" font-size="20" lengthAdjust="spacingAndGlyphs" textLength="396" x="522" y="423.7577">∥ in(t̄₂).in(t̄₃).out(t₂).out(t₃).0</text><text fill="#000000" font-family="Courier" font-size="20" lengthAdjust="spacingAndGlyphs" textLength="396" x="546" y="443.7467">∥ in(t̄₃).in(t̄₁).out(t₃).out(t₁).0</text><text fill="#000000" font-family="Courier" font-size="20" lengthAdjust="spacingAndGlyphs" textLength="120" x="570" y="463.7357">∥ t₂ ∪ t₃</text><rect fill="#FEFECE" filter="url(#fsyelse7e8p8e)" height="119.9451" rx="12.5" ry="12.5" style="stroke: #A80036; stroke-width: 1.5;" width="464" x="1467" y="350"/><line style="stroke: #A80036; stroke-width: 1.5;" x1="1467" x2="1931" y1="379.989" y2="379.989"/><text fill="#000000" font-family="Courier" font-size="20" font-style="italic" lengthAdjust="spacingAndGlyphs" textLength="24" x="1687" y="373.7797">s2</text><text fill="#000000" font-family="Courier" font-size="20" lengthAdjust="spacingAndGlyphs" textLength="364" x="1472" y="403.7687">in(t̄₁).in(t̄₂).out(t₁).out(t₂).0</text><text fill="#000000" font-family="Courier" font-size="20" lengthAdjust="spacingAndGlyphs" textLength="314" x="1496" y="423.7577">∥ in(t̄₃).out(t₂).out(t₃).0</text><text fill="#000000" font-family="Courier" font-size="20" lengthAdjust="spacingAndGlyphs" textLength="396" x="1520" y="443.7467">∥ in(t̄₃).in(t̄₁).out(t₃).out(t₁).0</text><text fill="#000000" font-family="Courier" font-size="20" lengthAdjust="spacingAndGlyphs" textLength="120" x="1544" y="463.7357">∥ t₁ ∪ t₃</text><rect fill="#FEFECE" filter="url(#fsyelse7e8p8e)" height="119.9451" rx="12.5" ry="12.5" style="stroke: #A80036; stroke-width: 1.5;" width="440" x="992" y="350"/><line style="stroke: #A80036; stroke-width: 1.5;" x1="992" x2="1432" y1="379.989" y2="379.989"/><text fill="#000000" font-family="Courier" font-size="20" font-style="italic" lengthAdjust="spacingAndGlyphs" textLength="24" x="1200" y="373.7797">s3</text><text fill="#000000" font-family="Courier" font-size="20" lengthAdjust="spacingAndGlyphs" textLength="364" x="997" y="403.7687">in(t̄₁).in(t̄₂).out(t₁).out(t₂).0</text><text fill="#000000" font-family="Courier" font-size="20" lengthAdjust="spacingAndGlyphs" textLength="396" x="1021" y="423.7577">∥ in(t̄₂).in(t̄₃).out(t₂).out(t₃).0</text><text fill="#000000" font-family="Courier" font-size="20" lengthAdjust="spacingAndGlyphs" textLength="314" x="1045" y="443.7467">∥ in(t̄₁).out(t₃).out(t₁).0</text><text fill="#000000" font-family="Courier" font-size="20" lengthAdjust="spacingAndGlyphs" textLength="120" x="1069" y="463.7357">∥ t₁ ∪ t₂</text><rect fill="#FEFECE" filter="url(#fsyelse7e8p8e)" height="119.9451" rx="12.5" ry="12.5" style="stroke: #A80036; stroke-width: 1.5;" width="464" x="6" y="571"/><line style="stroke: #A80036; stroke-width: 1.5;" x1="6" x2="470" y1="600.989" y2="600.989"/><text fill="#000000" font-family="Courier" font-size="20" font-style="italic" lengthAdjust="spacingAndGlyphs" textLength="24" x="226" y="594.7797">s4</text><text fill="#000000" font-family="Courier" font-size="20" lengthAdjust="spacingAndGlyphs" textLength="200" x="11" y="624.7687">out(t₁).out(t₂).0</text><text fill="#000000" font-family="Courier" font-size="20" lengthAdjust="spacingAndGlyphs" textLength="396" x="35" y="644.7577">∥ in(t̄₂).in(t̄₃).out(t₂).out(t₃).0</text><text fill="#000000" font-family="Courier" font-size="20" lengthAdjust="spacingAndGlyphs" textLength="396" x="59" y="664.7467">∥ in(t̄₃).in(t̄₁).out(t₃).out(t₁).0</text><text fill="#000000" font-family="Courier" font-size="20" lengthAdjust="spacingAndGlyphs" textLength="54" x="83" y="684.7357">∥ t₃</text><rect fill="#FEFECE" filter="url(#fsyelse7e8p8e)" height="119.9451" rx="12.5" ry="12.5" style="stroke: #A80036; stroke-width: 1.5;" width="464" x="980" y="571"/><line style="stroke: #A80036; stroke-width: 1.5;" x1="980" x2="1444" y1="600.989" y2="600.989"/><text fill="#000000" font-family="Courier" font-size="20" font-style="italic" lengthAdjust="spacingAndGlyphs" textLength="24" x="1200" y="594.7797">s5</text><text fill="#000000" font-family="Courier" font-size="20" lengthAdjust="spacingAndGlyphs" textLength="282" x="985" y="624.7687">in(t̄₂).out(t₁).out(t₂).0</text><text fill="#000000" font-family="Courier" font-size="20" lengthAdjust="spacingAndGlyphs" textLength="314" x="1009" y="644.7577">∥ in(t̄₃).out(t₂).out(t₃).0</text><text fill="#000000" font-family="Courier" font-size="20" lengthAdjust="spacingAndGlyphs" textLength="396" x="1033" y="664.7467">∥ in(t̄₃).in(t̄₁).out(t₃).out(t₁).0</text><text fill="#000000" font-family="Courier" font-size="20" lengthAdjust="spacingAndGlyphs" textLength="54" x="1057" y="684.7357">∥ t₃</text><rect fill="#FEFECE" filter="url(#fsyelse7e8p8e)" height="119.9451" rx="12.5" ry="12.5" style="stroke: #A80036; stroke-width: 1.5;" width="440" x="505" y="571"/><line style="stroke: #A80036; stroke-width: 1.5;" x1="505" x2="945" y1="600.989" y2="600.989"/><text fill="#000000" font-family="Courier" font-size="20" font-style="italic" lengthAdjust="spacingAndGlyphs" textLength="24" x="713" y="594.7797">s6</text><text fill="#000000" font-family="Courier" font-size="20" lengthAdjust="spacingAndGlyphs" textLength="282" x="510" y="624.7687">in(t̄₂).out(t₁).out(t₂).0</text><text fill="#000000" font-family="Courier" font-size="20" lengthAdjust="spacingAndGlyphs" textLength="396" x="534" y="644.7577">∥ in(t̄₂).in(t̄₃).out(t₂).out(t₃).0</text><text fill="#000000" font-family="Courier" font-size="20" lengthAdjust="spacingAndGlyphs" textLength="314" x="558" y="664.7467">∥ in(t̄₁).out(t₃).out(t₁).0</text><text fill="#000000" font-family="Courier" font-size="20" lengthAdjust="spacingAndGlyphs" textLength="54" x="582" y="684.7357">∥ t₂</text><rect fill="#FEFECE" filter="url(#fsyelse7e8p8e)" height="119.9451" rx="12.5" ry="12.5" style="stroke: #A80036; stroke-width: 1.5;" width="464" x="1898" y="571"/><line style="stroke: #A80036; stroke-width: 1.5;" x1="1898" x2="2362" y1="600.989" y2="600.989"/><text fill="#000000" font-family="Courier" font-size="20" font-style="italic" lengthAdjust="spacingAndGlyphs" textLength="24" x="2118" y="594.7797">s8</text><text fill="#000000" font-family="Courier" font-size="20" lengthAdjust="spacingAndGlyphs" textLength="364" x="1903" y="624.7687">in(t̄₁).in(t̄₂).out(t₁).out(t₂).0</text><text fill="#000000" font-family="Courier" font-size="20" lengthAdjust="spacingAndGlyphs" textLength="232" x="1927" y="644.7577">∥ out(t₂).out(t₃).0</text><text fill="#000000" font-family="Courier" font-size="20" lengthAdjust="spacingAndGlyphs" textLength="396" x="1951" y="664.7467">∥ in(t̄₃).in(t̄₁).out(t₃).out(t₁).0</text><text fill="#000000" font-family="Courier" font-size="20" lengthAdjust="spacingAndGlyphs" textLength="54" x="1975" y="684.7357">∥ t₁</text><rect fill="#FEFECE" filter="url(#fsyelse7e8p8e)" height="119.9451" rx="12.5" ry="12.5" style="stroke: #A80036; stroke-width: 1.5;" width="384" x="1479" y="571"/><line style="stroke: #A80036; stroke-width: 1.5;" x1="1479" x2="1863" y1="600.989" y2="600.989"/><text fill="#000000" font-family="Courier" font-size="20" font-style="italic" lengthAdjust="spacingAndGlyphs" textLength="24" x="1659" y="594.7797">s9</text><text fill="#000000" font-family="Courier" font-size="20" lengthAdjust="spacingAndGlyphs" textLength="364" x="1484" y="624.7687">in(t̄₁).in(t̄₂).out(t₁).out(t₂).0</text><text fill="#000000" font-family="Courier" font-size="20" lengthAdjust="spacingAndGlyphs" textLength="314" x="1508" y="644.7577">∥ in(t̄₃).out(t₂).out(t₃).0</text><text fill="#000000" font-family="Courier" font-size="20" lengthAdjust="spacingAndGlyphs" textLength="314" x="1532" y="664.7467">∥ in(t̄₁).out(t₃).out(t₁).0</text><text fill="#000000" font-family="Courier" font-size="20" lengthAdjust="spacingAndGlyphs" textLength="54" x="1556" y="684.7357">∥ t₁</text><rect fill="#FEFECE" filter="url(#fsyelse7e8p8e)" height="119.9451" rx="12.5" ry="12.5" style="stroke: #A80036; stroke-width: 1.5;" width="440" x="2397" y="571"/><line style="stroke: #A80036; stroke-width: 1.5;" x1="2397" x2="2837" y1="600.989" y2="600.989"/><text fill="#000000" font-family="Courier" font-size="20" font-style="italic" lengthAdjust="spacingAndGlyphs" textLength="36" x="2599" y="594.7797">s12</text><text fill="#000000" font-family="Courier" font-size="20" lengthAdjust="spacingAndGlyphs" textLength="364" x="2402" y="624.7687">in(t̄₁).in(t̄₂).out(t₁).out(t₂).0</text><text fill="#000000" font-family="Courier" font-size="20" lengthAdjust="spacingAndGlyphs" textLength="396" x="2426" y="644.7577">∥ in(t̄₂).in(t̄₃).out(t₂).out(t₃).0</text><text fill="#000000" font-family="Courier" font-size="20" lengthAdjust="spacingAndGlyphs" textLength="232" x="2450" y="664.7467">∥ out(t₃).out(t₁).0</text><text fill="#000000" font-family="Courier" font-size="20" lengthAdjust="spacingAndGlyphs" textLength="54" x="2474" y="684.7357">∥ t₂</text><rect fill="#FFFF00" filter="url(#fsyelse7e8p8e)" height="119.9451" rx="12.5" ry="12.5" style="stroke: #A80036; stroke-width: 1.5;" width="464" x="6" y="792"/><line style="stroke: #A80036; stroke-width: 1.5;" x1="6" x2="470" y1="821.989" y2="821.989"/><text fill="#000000" font-family="Courier" font-size="20" font-style="italic" lengthAdjust="spacingAndGlyphs" textLength="36" x="220" y="815.7797">s13</text><text fill="#000000" font-family="Courier" font-size="20" lengthAdjust="spacingAndGlyphs" textLength="106" x="11" y="845.7687">out(t₂).0</text><text fill="#000000" font-family="Courier" font-size="20" lengthAdjust="spacingAndGlyphs" textLength="396" x="35" y="865.7577">∥ in(t̄₂).in(t̄₃).out(t₂).out(t₃).0</text><text fill="#000000" font-family="Courier" font-size="20" lengthAdjust="spacingAndGlyphs" textLength="396" x="59" y="885.7467">∥ in(t̄₃).in(t̄₁).out(t₃).out(t₁).0</text><text fill="#000000" font-family="Courier" font-size="20" lengthAdjust="spacingAndGlyphs" textLength="120" x="83" y="905.7357">∥ t₁ ∪ t₃</text><rect fill="#FFFF00" filter="url(#fsyelse7e8p8e)" height="119.9451" rx="12.5" ry="12.5" style="stroke: #A80036; stroke-width: 1.5;" width="440" x="505" y="792"/><line style="stroke: #A80036; stroke-width: 1.5;" x1="505" x2="945" y1="821.989" y2="821.989"/><text fill="#000000" font-family="Courier" font-size="20" font-style="italic" lengthAdjust="spacingAndGlyphs" textLength="36" x="707" y="815.7797">s14</text><text fill="#000000" font-family="Courier" font-size="20" lengthAdjust="spacingAndGlyphs" textLength="200" x="510" y="845.7687">out(t₁).out(t₂).0</text><text fill="#000000" font-family="Courier" font-size="20" lengthAdjust="spacingAndGlyphs" textLength="396" x="534" y="865.7577">∥ in(t̄₂).in(t̄₃).out(t₂).out(t₃).0</text><text fill="#000000" font-family="Courier" font-size="20" lengthAdjust="spacingAndGlyphs" textLength="314" x="558" y="885.7467">∥ in(t̄₁).out(t₃).out(t₁).0</text><text fill="#000000" font-family="Courier" font-size="20" lengthAdjust="spacingAndGlyphs" textLength="42" x="582" y="905.7357">∥ ∅</text><rect fill="#FFFF00" filter="url(#fsyelse7e8p8e)" height="119.9451" rx="12.5" ry="12.5" style="stroke: #A80036; stroke-width: 1.5;" width="464" x="1399" y="792"/><line style="stroke: #A80036; stroke-width: 1.5;" x1="1399" x2="1863" y1="821.989" y2="821.989"/><text fill="#000000" font-family="Courier" font-size="20" font-style="italic" lengthAdjust="spacingAndGlyphs" textLength="36" x="1613" y="815.7797">s15</text><text fill="#000000" font-family="Courier" font-size="20" lengthAdjust="spacingAndGlyphs" textLength="282" x="1404" y="845.7687">in(t̄₂).out(t₁).out(t₂).0</text><text fill="#000000" font-family="Courier" font-size="20" lengthAdjust="spacingAndGlyphs" textLength="232" x="1428" y="865.7577">∥ out(t₂).out(t₃).0</text><text fill="#000000" font-family="Courier" font-size="20" lengthAdjust="spacingAndGlyphs" textLength="396" x="1452" y="885.7467">∥ in(t̄₃).in(t̄₁).out(t₃).out(t₁).0</text><text fill="#000000" font-family="Courier" font-size="20" lengthAdjust="spacingAndGlyphs" textLength="42" x="1476" y="905.7357">∥ ∅</text><rect fill="#FF0000" filter="url(#fsyelse7e8p8e)" height="119.9451" rx="12.5" ry="12.5" style="stroke: #A80036; stroke-width: 1.5;" width="382" x="982" y="792"/><line style="stroke: #A80036; stroke-width: 1.5;" x1="982" x2="1364" y1="821.989" y2="821.989"/><text fill="#000000" font-family="Courier" font-size="20" font-style="italic" lengthAdjust="spacingAndGlyphs" textLength="36" x="1155" y="815.7797">s16</text><text fill="#000000" font-family="Courier" font-size="20" lengthAdjust="spacingAndGlyphs" textLength="282" x="987" y="845.7687">in(t̄₂).out(t₁).out(t₂).0</text><text fill="#000000" font-family="Courier" font-size="20" lengthAdjust="spacingAndGlyphs" textLength="314" x="1011" y="865.7577">∥ in(t̄₃).out(t₂).out(t₃).0</text><text fill="#000000" font-family="Courier" font-size="20" lengthAdjust="spacingAndGlyphs" textLength="314" x="1035" y="885.7467">∥ in(t̄₁).out(t₃).out(t₁).0</text><text fill="#000000" font-family="Courier" font-size="20" lengthAdjust="spacingAndGlyphs" textLength="42" x="1059" y="905.7357">∥ ∅</text><rect fill="#FFFF00" filter="url(#fsyelse7e8p8e)" height="119.9451" rx="12.5" ry="12.5" style="stroke: #A80036; stroke-width: 1.5;" width="464" x="1898" y="792"/><line style="stroke: #A80036; stroke-width: 1.5;" x1="1898" x2="2362" y1="821.989" y2="821.989"/><text fill="#000000" font-family="Courier" font-size="20" font-style="italic" lengthAdjust="spacingAndGlyphs" textLength="36" x="2112" y="815.7797">s22</text><text fill="#000000" font-family="Courier" font-size="20" lengthAdjust="spacingAndGlyphs" textLength="364" x="1903" y="845.7687">in(t̄₁).in(t̄₂).out(t₁).out(t₂).0</text><text fill="#000000" font-family="Courier" font-size="20" lengthAdjust="spacingAndGlyphs" textLength="138" x="1927" y="865.7577">∥ out(t₃).0</text><text fill="#000000" font-family="Courier" font-size="20" lengthAdjust="spacingAndGlyphs" textLength="396" x="1951" y="885.7467">∥ in(t̄₃).in(t̄₁).out(t₃).out(t₁).0</text><text fill="#000000" font-family="Courier" font-size="20" lengthAdjust="spacingAndGlyphs" textLength="120" x="1975" y="905.7357">∥ t₁ ∪ t₂</text><rect fill="#FFFF00" filter="url(#fsyelse7e8p8e)" height="119.9451" rx="12.5" ry="12.5" style="stroke: #A80036; stroke-width: 1.5;" width="384" x="2397" y="792"/><line style="stroke: #A80036; stroke-width: 1.5;" x1="2397" x2="2781" y1="821.989" y2="821.989"/><text fill="#000000" font-family="Courier" font-size="20" font-style="italic" lengthAdjust="spacingAndGlyphs" textLength="36" x="2571" y="815.7797">s24</text><text fill="#000000" font-family="Courier" font-size="20" lengthAdjust="spacingAndGlyphs" textLength="364" x="2402" y="845.7687">in(t̄₁).in(t̄₂).out(t₁).out(t₂).0</text><text fill="#000000" font-family="Courier" font-size="20" lengthAdjust="spacingAndGlyphs" textLength="314" x="2426" y="865.7577">∥ in(t̄₃).out(t₂).out(t₃).0</text><text fill="#000000" font-family="Courier" font-size="20" lengthAdjust="spacingAndGlyphs" textLength="232" x="2450" y="885.7467">∥ out(t₃).out(t₁).0</text><text fill="#000000" font-family="Courier" font-size="20" lengthAdjust="spacingAndGlyphs" textLength="42" x="2474" y="905.7357">∥ ∅</text><rect fill="#FFFF00" filter="url(#fsyelse7e8p8e)" height="119.9451" rx="12.5" ry="12.5" style="stroke: #A80036; stroke-width: 1.5;" width="440" x="2816" y="792"/><line style="stroke: #A80036; stroke-width: 1.5;" x1="2816" x2="3256" y1="821.989" y2="821.989"/><text fill="#000000" font-family="Courier" font-size="20" font-style="italic" lengthAdjust="spacingAndGlyphs" textLength="36" x="3018" y="815.7797">s30</text><text fill="#000000" font-family="Courier" font-size="20" lengthAdjust="spacingAndGlyphs" textLength="364" x="2821" y="845.7687">in(t̄₁).in(t̄₂).out(t₁).out(t₂).0</text><text fill="#000000" font-family="Courier" font-size="20" lengthAdjust="spacingAndGlyphs" textLength="396" x="2845" y="865.7577">∥ in(t̄₂).in(t̄₃).out(t₂).out(t₃).0</text><text fill="#000000" font-family="Courier" font-size="20" lengthAdjust="spacingAndGlyphs" textLength="138" x="2869" y="885.7467">∥ out(t₁).0</text><text fill="#000000" font-family="Courier" font-size="20" lengthAdjust="spacingAndGlyphs" textLength="120" x="2893" y="905.7357">∥ t₂ ∪ t₃</text><!--link *start to s0--><path d="M1212,48.321 C1212,63.498 1212,94.789 1212,123.915 " fill="none" id="*start-s0" style="stroke: #A80036; stroke-width: 1.0;"/><polygon fill="#A80036" points="1212,128.944,1216,119.944,1212,123.944,1208,119.944,1212,128.944" style="stroke: #A80036; stroke-width: 1.0;"/><!--link s0 to s1--><path d="M1080.53,249.12 C1012.58,279.677 929.745,316.928 861.131,347.783 " fill="none" id="s0-s1" style="stroke: #A80036; stroke-width: 1.0;"/><polygon fill="#A80036" points="856.216,349.993,866.0648,349.9496,860.7761,347.9422,862.7835,342.6535,856.216,349.993" style="stroke: #A80036; stroke-width: 1.0;"/><text fill="#000000" font-family="Courier" font-size="20" lengthAdjust="spacingAndGlyphs" textLength="70" x="1013" y="298.7797">in(t₁)</text><text fill="#000000" font-family="Courier" font-size="20" lengthAdjust="spacingAndGlyphs" textLength="58" x="1019" y="318.7687">[IN₁]</text><!--link s0 to s2--><path d="M1343.47,249.12 C1411.42,279.677 1494.26,316.928 1562.87,347.783 " fill="none" id="s0-s2" style="stroke: #A80036; stroke-width: 1.0;"/><polygon fill="#A80036" points="1567.78,349.993,1561.2011,342.6638,1563.2167,347.9493,1557.9312,349.965,1567.78,349.993" style="stroke: #A80036; stroke-width: 1.0;"/><text fill="#000000" font-family="Courier" font-size="20" lengthAdjust="spacingAndGlyphs" textLength="70" x="1500" y="298.7797">in(t₂)</text><text fill="#000000" font-family="Courier" font-size="20" lengthAdjust="spacingAndGlyphs" textLength="58" x="1506" y="318.7687">[IN₂]</text><!--link s0 to s3--><path d="M1212,249.265 C1212,278.723 1212,314.373 1212,344.515 " fill="none" id="s0-s3" style="stroke: #A80036; stroke-width: 1.0;"/><polygon fill="#A80036" points="1212,349.688,1216,340.688,1212,344.688,1208,340.688,1212,349.688" style="stroke: #A80036; stroke-width: 1.0;"/><text fill="#000000" font-family="Courier" font-size="20" lengthAdjust="spacingAndGlyphs" textLength="70" x="1213" y="298.7797">in(t₃)</text><text fill="#000000" font-family="Courier" font-size="20" lengthAdjust="spacingAndGlyphs" textLength="58" x="1219" y="318.7687">[IN₃]</text><!--link s1 to s4--><path d="M593.532,470.12 C525.58,500.677 442.745,537.928 374.131,568.783 " fill="none" id="s1-s4" style="stroke: #A80036; stroke-width: 1.0;"/><polygon fill="#A80036" points="369.216,570.993,379.0648,570.9496,373.7761,568.9422,375.7835,563.6535,369.216,570.993" style="stroke: #A80036; stroke-width: 1.0;"/><text fill="#000000" font-family="Courier" font-size="20" lengthAdjust="spacingAndGlyphs" textLength="70" x="526" y="519.7797">in(t₂)</text><text fill="#000000" font-family="Courier" font-size="20" lengthAdjust="spacingAndGlyphs" textLength="58" x="532" y="539.7687">[IN₁]</text><!--link s1 to s5--><path d="M883.907,470.119 C907.891,479.725 932.215,489.859 955,500 C1002.035,520.935 1052.81,546.059 1096.71,568.616 " fill="none" id="s1-s5" style="stroke: #A80036; stroke-width: 1.0;"/><polygon fill="#A80036" points="1101.2,570.931,1095.0249,563.2584,1096.7533,568.6448,1091.367,570.3732,1101.2,570.931" style="stroke: #A80036; stroke-width: 1.0;"/><text fill="#000000" font-family="Courier" font-size="20" lengthAdjust="spacingAndGlyphs" textLength="70" x="1041" y="519.7797">in(t₂)</text><text fill="#000000" font-family="Courier" font-size="20" lengthAdjust="spacingAndGlyphs" textLength="58" x="1047" y="539.7687">[IN₂]</text><!--link s1 to s6--><path d="M725,470.265 C725,499.723 725,535.373 725,565.515 " fill="none" id="s1-s6" style="stroke: #A80036; stroke-width: 1.0;"/><polygon fill="#A80036" points="725,570.688,729,561.688,725,565.688,721,561.688,725,570.688" style="stroke: #A80036; stroke-width: 1.0;"/><text fill="#000000" font-family="Courier" font-size="20" lengthAdjust="spacingAndGlyphs" textLength="70" x="726" y="519.7797">in(t₃)</text><text fill="#000000" font-family="Courier" font-size="20" lengthAdjust="spacingAndGlyphs" textLength="58" x="732" y="539.7687">[IN₃]</text><!--link s2 to s5--><path d="M1466.73,466.082 C1461.1,467.402 1455.52,468.71 1450,470 C1392.26,483.503 1370.48,468.896 1320,500 C1292.96,516.659 1269.48,542.471 1251.38,566.717 " fill="none" id="s2-s5" style="stroke: #A80036; stroke-width: 1.0;"/><polygon fill="#A80036" points="1248.3,570.907,1256.8558,566.0286,1251.2633,566.8797,1250.4122,561.2873,1248.3,570.907" style="stroke: #A80036; stroke-width: 1.0;"/><text fill="#000000" font-family="Courier" font-size="20" lengthAdjust="spacingAndGlyphs" textLength="70" x="1321" y="519.7797">in(t₁)</text><text fill="#000000" font-family="Courier" font-size="20" lengthAdjust="spacingAndGlyphs" textLength="58" x="1327" y="539.7687">[IN₁]</text><!--link s2 to s8--><path d="M1815.35,470.12 C1875.37,500.616 1948.51,537.779 2009.16,568.598 " fill="none" id="s2-s8" style="stroke: #A80036; stroke-width: 1.0;"/><polygon fill="#A80036" points="2013.87,570.993,2007.6674,563.3426,2009.4151,568.7227,2004.035,570.4704,2013.87,570.993" style="stroke: #A80036; stroke-width: 1.0;"/><text fill="#000000" font-family="Courier" font-size="20" lengthAdjust="spacingAndGlyphs" textLength="70" x="1954" y="519.7797">in(t₃)</text><text fill="#000000" font-family="Courier" font-size="20" lengthAdjust="spacingAndGlyphs" textLength="58" x="1960" y="539.7687">[IN₂]</text><!--link s2 to s9--><path d="M1691.42,470.265 C1687.66,499.723 1683.1,535.373 1679.24,565.515 " fill="none" id="s2-s9" style="stroke: #A80036; stroke-width: 1.0;"/><polygon fill="#A80036" points="1678.58,570.688,1683.6899,562.2685,1679.2146,565.7284,1675.7546,561.2531,1678.58,570.688" style="stroke: #A80036; stroke-width: 1.0;"/><text fill="#000000" font-family="Courier" font-size="20" lengthAdjust="spacingAndGlyphs" textLength="70" x="1688" y="519.7797">in(t₃)</text><text fill="#000000" font-family="Courier" font-size="20" lengthAdjust="spacingAndGlyphs" textLength="58" x="1694" y="539.7687">[IN₃]</text><!--link s3 to s12--><path d="M1432.14,467.146 C1438.14,468.171 1444.1,469.126 1450,470 C1706.65,508.056 1775.62,467.236 2033,500 C2189.16,519.879 2226.48,536.201 2380,571 C2383.93,571.89 2387.89,572.795 2391.87,573.712 " fill="none" id="s3-s12" style="stroke: #A80036; stroke-width: 1.0;"/><polygon fill="#A80036" points="2396.94,574.881,2389.0746,568.9535,2392.0689,573.7528,2387.2696,576.7472,2396.94,574.881" style="stroke: #A80036; stroke-width: 1.0;"/><text fill="#000000" font-family="Courier" font-size="20" lengthAdjust="spacingAndGlyphs" textLength="70" x="2249" y="519.7797">in(t₁)</text><text fill="#000000" font-family="Courier" font-size="20" lengthAdjust="spacingAndGlyphs" textLength="58" x="2255" y="539.7687">[IN₃]</text><!--link s3 to s6--><path d="M991.913,467.142 C931.957,482.823 881.521,496.554 875,500 C842.04,517.418 810.15,543.329 784.312,567.445 " fill="none" id="s3-s6" style="stroke: #A80036; stroke-width: 1.0;"/><polygon fill="#A80036" points="780.545,570.989,789.841,567.7356,784.1868,567.563,784.3593,561.9088,780.545,570.989" style="stroke: #A80036; stroke-width: 1.0;"/><text fill="#000000" font-family="Courier" font-size="20" lengthAdjust="spacingAndGlyphs" textLength="70" x="876" y="519.7797">in(t₁)</text><text fill="#000000" font-family="Courier" font-size="20" lengthAdjust="spacingAndGlyphs" textLength="58" x="882" y="539.7687">[IN₁]</text><!--link s3 to s9--><path d="M1335.91,470.12 C1399.95,500.677 1478.03,537.928 1542.7,568.783 " fill="none" id="s3-s9" style="stroke: #A80036; stroke-width: 1.0;"/><polygon fill="#A80036" points="1547.33,570.993,1540.935,563.5027,1542.8189,568.8367,1537.4849,570.7205,1547.33,570.993" style="stroke: #A80036; stroke-width: 1.0;"/><text fill="#000000" font-family="Courier" font-size="20" lengthAdjust="spacingAndGlyphs" textLength="70" x="1483" y="519.7797">in(t₂)</text><text fill="#000000" font-family="Courier" font-size="20" lengthAdjust="spacingAndGlyphs" textLength="58" x="1489" y="539.7687">[IN₂]</text><!--link s4 to s13--><path d="M238,691.265 C238,720.723 238,756.373 238,786.515 " fill="none" id="s4-s13" style="stroke: #A80036; stroke-width: 1.0;"/><polygon fill="#A80036" points="238,791.688,242,782.688,238,786.688,234,782.688,238,791.688" style="stroke: #A80036; stroke-width: 1.0;"/><text fill="#000000" font-family="Courier" font-size="20" lengthAdjust="spacingAndGlyphs" textLength="82" x="239" y="740.7797">out(t₁)</text><text fill="#000000" font-family="Courier" font-size="20" lengthAdjust="spacingAndGlyphs" textLength="70" x="245" y="760.7687">[OUT₁]</text><!--link s4 to s14--><path d="M369.468,691.12 C437.42,721.677 520.255,758.928 588.869,789.783 " fill="none" id="s4-s14" style="stroke: #A80036; stroke-width: 1.0;"/><polygon fill="#A80036" points="593.784,791.993,587.2165,784.6535,589.2239,789.9422,583.9352,791.9496,593.784,791.993" style="stroke: #A80036; stroke-width: 1.0;"/><text fill="#000000" font-family="Courier" font-size="20" lengthAdjust="spacingAndGlyphs" textLength="70" x="526" y="740.7797">in(t₃)</text><text fill="#000000" font-family="Courier" font-size="20" lengthAdjust="spacingAndGlyphs" textLength="58" x="532" y="760.7687">[IN₃]</text><!--link s5 to s15--><path d="M1403.74,691.019 C1425.55,700.033 1447.08,710.037 1467,721 C1500.68,739.531 1534.53,764.948 1562.66,788.395 " fill="none" id="s5-s15" style="stroke: #A80036; stroke-width: 1.0;"/><polygon fill="#A80036" points="1566.77,791.839,1562.4442,782.991,1562.9389,788.6262,1557.3037,789.1208,1566.77,791.839" style="stroke: #A80036; stroke-width: 1.0;"/><text fill="#000000" font-family="Courier" font-size="20" lengthAdjust="spacingAndGlyphs" textLength="70" x="1530" y="740.7797">in(t₃)</text><text fill="#000000" font-family="Courier" font-size="20" lengthAdjust="spacingAndGlyphs" textLength="58" x="1536" y="760.7687">[IN₂]</text><!--link s5 to s16--><path d="M1201.45,691.265 C1196.2,720.723 1189.85,756.373 1184.48,786.515 " fill="none" id="s5-s16" style="stroke: #A80036; stroke-width: 1.0;"/><polygon fill="#A80036" points="1183.56,791.688,1189.0769,783.5293,1184.4372,786.7655,1181.2009,782.1258,1183.56,791.688" style="stroke: #A80036; stroke-width: 1.0;"/><text fill="#000000" font-family="Courier" font-size="20" lengthAdjust="spacingAndGlyphs" textLength="70" x="1196" y="740.7797">in(t₃)</text><text fill="#000000" font-family="Courier" font-size="20" lengthAdjust="spacingAndGlyphs" textLength="58" x="1202" y="760.7687">[IN₃]</text><!--link s6 to s14--><path d="M725,691.265 C725,720.723 725,756.373 725,786.515 " fill="none" id="s6-s14" style="stroke: #A80036; stroke-width: 1.0;"/><polygon fill="#A80036" points="725,791.688,729,782.688,725,786.688,721,782.688,725,791.688" style="stroke: #A80036; stroke-width: 1.0;"/><text fill="#000000" font-family="Courier" font-size="20" lengthAdjust="spacingAndGlyphs" textLength="70" x="726" y="740.7797">in(t₂)</text><text fill="#000000" font-family="Courier" font-size="20" lengthAdjust="spacingAndGlyphs" textLength="58" x="732" y="760.7687">[IN₁]</text><!--link s6 to s16--><path d="M845.94,691.12 C908.45,721.677 984.652,758.928 1047.77,789.783 " fill="none" id="s6-s16" style="stroke: #A80036; stroke-width: 1.0;"/><polygon fill="#A80036" points="1052.29,791.993,1045.9661,784.4426,1047.7995,789.7941,1042.4479,791.6275,1052.29,791.993" style="stroke: #A80036; stroke-width: 1.0;"/><text fill="#000000" font-family="Courier" font-size="20" lengthAdjust="spacingAndGlyphs" textLength="70" x="990" y="740.7797">in(t₂)</text><text fill="#000000" font-family="Courier" font-size="20" lengthAdjust="spacingAndGlyphs" textLength="58" x="996" y="760.7687">[IN₂]</text><!--link s8 to s15--><path d="M1995.29,691.12 C1925.53,721.738 1840.45,759.077 1770.06,789.968 " fill="none" id="s8-s15" style="stroke: #A80036; stroke-width: 1.0;"/><polygon fill="#A80036" points="1765.45,791.993,1775.2988,792.0301,1770.0267,789.9795,1772.0773,784.7074,1765.45,791.993" style="stroke: #A80036; stroke-width: 1.0;"/><text fill="#000000" font-family="Courier" font-size="20" lengthAdjust="spacingAndGlyphs" textLength="70" x="1926" y="740.7797">in(t₁)</text><text fill="#000000" font-family="Courier" font-size="20" lengthAdjust="spacingAndGlyphs" textLength="58" x="1932" y="760.7687">[IN₁]</text><!--link s8 to s22--><path d="M2130,691.265 C2130,720.723 2130,756.373 2130,786.515 " fill="none" id="s8-s22" style="stroke: #A80036; stroke-width: 1.0;"/><polygon fill="#A80036" points="2130,791.688,2134,782.688,2130,786.688,2126,782.688,2130,791.688" style="stroke: #A80036; stroke-width: 1.0;"/><text fill="#000000" font-family="Courier" font-size="20" lengthAdjust="spacingAndGlyphs" textLength="82" x="2131" y="740.7797">out(t₂)</text><text fill="#000000" font-family="Courier" font-size="20" lengthAdjust="spacingAndGlyphs" textLength="70" x="2137" y="760.7687">[OUT₂]</text><!--link s9 to s16--><path d="M1478.81,685.25 C1447.64,695.866 1416.07,707.85 1387,721 C1344.94,740.024 1300.96,765.631 1263.88,789.089 " fill="none" id="s9-s16" style="stroke: #A80036; stroke-width: 1.0;"/><polygon fill="#A80036" points="1259.39,791.938,1269.1341,790.5053,1263.6151,789.2643,1264.8561,783.7452,1259.39,791.938" style="stroke: #A80036; stroke-width: 1.0;"/><text fill="#000000" font-family="Courier" font-size="20" lengthAdjust="spacingAndGlyphs" textLength="70" x="1388" y="740.7797">in(t₁)</text><text fill="#000000" font-family="Courier" font-size="20" lengthAdjust="spacingAndGlyphs" textLength="58" x="1394" y="760.7687">[IN₁]</text><!--link s9 to s24--><path d="M1863.21,687.523 C1869.19,688.763 1875.13,689.927 1881,691 C2030.66,718.361 2073.33,688.676 2222,721 C2296.82,737.268 2377.29,764.595 2443.75,790.007 " fill="none" id="s9-s24" style="stroke: #A80036; stroke-width: 1.0;"/><polygon fill="#A80036" points="2448.52,791.833,2441.543,784.8817,2443.85,790.0467,2438.6849,792.3537,2448.52,791.833" style="stroke: #A80036; stroke-width: 1.0;"/><text fill="#000000" font-family="Courier" font-size="20" lengthAdjust="spacingAndGlyphs" textLength="70" x="2366" y="740.7797">in(t₁)</text><text fill="#000000" font-family="Courier" font-size="20" lengthAdjust="spacingAndGlyphs" textLength="58" x="2372" y="760.7687">[IN₃]</text><!--link s12 to s24--><path d="M2609.42,691.265 C2605.66,720.723 2601.1,756.373 2597.24,786.515 " fill="none" id="s12-s24" style="stroke: #A80036; stroke-width: 1.0;"/><polygon fill="#A80036" points="2596.58,791.688,2601.6899,783.2685,2597.2146,786.7284,2593.7546,782.2531,2596.58,791.688" style="stroke: #A80036; stroke-width: 1.0;"/><text fill="#000000" font-family="Courier" font-size="20" lengthAdjust="spacingAndGlyphs" textLength="70" x="2606" y="740.7797">in(t₂)</text><text fill="#000000" font-family="Courier" font-size="20" lengthAdjust="spacingAndGlyphs" textLength="58" x="2612" y="760.7687">[IN₂]</text><!--link s12 to s30--><path d="M2730.11,691.12 C2788.46,721.616 2859.56,758.779 2918.52,789.598 " fill="none" id="s12-s30" style="stroke: #A80036; stroke-width: 1.0;"/><polygon fill="#A80036" points="2923.11,791.993,2917.0036,784.2657,2918.6839,789.6672,2913.2823,791.3475,2923.11,791.993" style="stroke: #A80036; stroke-width: 1.0;"/><text fill="#000000" font-family="Courier" font-size="20" lengthAdjust="spacingAndGlyphs" textLength="82" x="2865" y="740.7797">out(t₃)</text><text fill="#000000" font-family="Courier" font-size="20" lengthAdjust="spacingAndGlyphs" textLength="70" x="2871" y="760.7687">[OUT₃]</text><!--
@startuml
skinparam DefaultFontSize 20
skinparam StateFontStyle italics
skinparam DefaultFontName Courier
hide empty description

skinparam state {
  BackgroundColor<<Ending>> olive
  BackgroundColor<<Deadlock>> red
  BackgroundColor<<Unexplored>> yellow
}

state Deadlock <<Deadlock>>: TODO notice it

[*] - -> s0
state s0: in(t̄₁).in(t̄₂).out(t₁).out(t₂).0\n  ∥ in(t̄₂).in(t̄₃).out(t₂).out(t₃).0\n    ∥ in(t̄₃).in(t̄₁).out(t₃).out(t₁).0\n      ∥ t₁ ∪ t₂ ∪ t₃
s0 - -> s1: in(t₁)\n[IN₁]
s0 - -> s2: in(t₂)\n[IN₂]
s0 - -> s3: in(t₃)\n[IN₃]

state s1 : in(t̄₂).out(t₁).out(t₂).0\n  ∥ in(t̄₂).in(t̄₃).out(t₂).out(t₃).0\n    ∥ in(t̄₃).in(t̄₁).out(t₃).out(t₁).0\n      ∥ t₂ ∪ t₃
s1 - -> s4: in(t₂)\n[IN₁]
s1 - -> s5: in(t₂)\n[IN₂]
s1 - -> s6: in(t₃)\n[IN₃]

state s2 : in(t̄₁).in(t̄₂).out(t₁).out(t₂).0\n  ∥ in(t̄₃).out(t₂).out(t₃).0\n    ∥ in(t̄₃).in(t̄₁).out(t₃).out(t₁).0\n      ∥ t₁ ∪ t₃
s2 - -> s5: in(t₁)\n[IN₁]
s2 - -> s8: in(t₃)\n[IN₂]
s2 - -> s9: in(t₃)\n[IN₃]

state s3 : in(t̄₁).in(t̄₂).out(t₁).out(t₂).0\n  ∥ in(t̄₂).in(t̄₃).out(t₂).out(t₃).0\n    ∥ in(t̄₁).out(t₃).out(t₁).0\n      ∥ t₁ ∪ t₂
s3 - -> s12: in(t₁)\n[IN₃]
s3 - -> s6: in(t₁)\n[IN₁]
s3 - -> s9: in(t₂)\n[IN₂]

state s4 : out(t₁).out(t₂).0\n  ∥ in(t̄₂).in(t̄₃).out(t₂).out(t₃).0\n    ∥ in(t̄₃).in(t̄₁).out(t₃).out(t₁).0\n      ∥ t₃
s4 - -> s13: out(t₁)\n[OUT₁]
s4 - -> s14: in(t₃)\n[IN₃]

state s5 : in(t̄₂).out(t₁).out(t₂).0\n  ∥ in(t̄₃).out(t₂).out(t₃).0\n    ∥ in(t̄₃).in(t̄₁).out(t₃).out(t₁).0\n      ∥ t₃
s5 - -> s15: in(t₃)\n[IN₂]
s5 - -> s16: in(t₃)\n[IN₃]

state s6 : in(t̄₂).out(t₁).out(t₂).0\n  ∥ in(t̄₂).in(t̄₃).out(t₂).out(t₃).0\n    ∥ in(t̄₁).out(t₃).out(t₁).0\n      ∥ t₂
s6 - -> s14: in(t₂)\n[IN₁]
s6 - -> s16: in(t₂)\n[IN₂]

state s8 : in(t̄₁).in(t̄₂).out(t₁).out(t₂).0\n  ∥ out(t₂).out(t₃).0\n    ∥ in(t̄₃).in(t̄₁).out(t₃).out(t₁).0\n      ∥ t₁
s8 - -> s15: in(t₁)\n[IN₁]
s8 - -> s22: out(t₂)\n[OUT₂]

state s9 : in(t̄₁).in(t̄₂).out(t₁).out(t₂).0\n  ∥ in(t̄₃).out(t₂).out(t₃).0\n    ∥ in(t̄₁).out(t₃).out(t₁).0\n      ∥ t₁
s9 - -> s16: in(t₁)\n[IN₁]
s9 - -> s24: in(t₁)\n[IN₃]

state s12 : in(t̄₁).in(t̄₂).out(t₁).out(t₂).0\n  ∥ in(t̄₂).in(t̄₃).out(t₂).out(t₃).0\n    ∥ out(t₃).out(t₁).0\n      ∥ t₂
s12 - -> s24: in(t₂)\n[IN₂]
s12 - -> s30: out(t₃)\n[OUT₃]

state s13 <<Unexplored>>: out(t₂).0\n  ∥ in(t̄₂).in(t̄₃).out(t₂).out(t₃).0\n    ∥ in(t̄₃).in(t̄₁).out(t₃).out(t₁).0\n      ∥ t₁ ∪ t₃

state s14 <<Unexplored>>: out(t₁).out(t₂).0\n  ∥ in(t̄₂).in(t̄₃).out(t₂).out(t₃).0\n    ∥ in(t̄₁).out(t₃).out(t₁).0\n      ∥ ∅

state s15 <<Unexplored>>: in(t̄₂).out(t₁).out(t₂).0\n  ∥ out(t₂).out(t₃).0\n    ∥ in(t̄₃).in(t̄₁).out(t₃).out(t₁).0\n      ∥ ∅

state s16 <<Deadlock>>: in(t̄₂).out(t₁).out(t₂).0\n  ∥ in(t̄₃).out(t₂).out(t₃).0\n    ∥ in(t̄₁).out(t₃).out(t₁).0\n      ∥ ∅

state s22 <<Unexplored>>: in(t̄₁).in(t̄₂).out(t₁).out(t₂).0\n  ∥ out(t₃).0\n    ∥ in(t̄₃).in(t̄₁).out(t₃).out(t₁).0\n      ∥ t₁ ∪ t₂

state s24 <<Unexplored>>: in(t̄₁).in(t̄₂).out(t₁).out(t₂).0\n  ∥ in(t̄₃).out(t₂).out(t₃).0\n    ∥ out(t₃).out(t₁).0\n      ∥ ∅

state s30 <<Unexplored>>: in(t̄₁).in(t̄₂).out(t₁).out(t₂).0\n  ∥ in(t̄₂).in(t̄₃).out(t₂).out(t₃).0\n    ∥ out(t₁).0\n      ∥ t₂ ∪ t₃
@enduml

PlantUML version 1.2018.12(Sun Oct 21 10:15:15 UTC 2018)
(GPL source distribution)
Java Runtime: Java(TM) SE Runtime Environment
JVM: Java HotSpot(TM) 64-Bit Server VM
Java Version: 1.7.0_25-b15
Operating System: Linux
Default Encoding: UTF-8
Language: en
Country: US
--></g></svg>