<?xml version="1.0" encoding="UTF-8" standalone="no"?>
<svg xmlns="http://www.w3.org/2000/svg" xmlns:xlink="http://www.w3.org/1999/xlink" contentScriptType="application/ecmascript" contentStyleType="text/css" height="803px" preserveAspectRatio="none" style="width:334px;height:803px;" version="1.1" viewBox="0 0 334 803" width="334px" zoomAndPan="magnify"><defs><filter height="300%" id="fx7h3llb9uudc" width="300%" x="-1" y="-1"><feGaussianBlur result="blurOut" stdDeviation="2.0"/><feColorMatrix in="blurOut" result="blurOut2" type="matrix" values="0 0 0 0 0 0 0 0 0 0 0 0 0 0 0 0 0 0 .4 0"/><feOffset dx="4.0" dy="4.0" in="blurOut2" result="blurOut3"/><feBlend in="SourceGraphic" in2="blurOut3" mode="normal"/></filter></defs><g><ellipse cx="104" cy="18" fill="#000000" filter="url(#fx7h3llb9uudc)" rx="10" ry="10" style="stroke: none; stroke-width: 1.0;"/><rect fill="#FEFECE" filter="url(#fx7h3llb9uudc)" height="59.978" rx="12.5" ry="12.5" style="stroke: #A80036; stroke-width: 1.5;" width="50" x="79" y="89"/><line style="stroke: #A80036; stroke-width: 1.5;" x1="79" x2="129" y1="118.989" y2="118.989"/><text fill="#000000" font-family="Courier" font-size="20" font-style="italic" lengthAdjust="spacingAndGlyphs" textLength="24" x="92" y="112.7797">s0</text><text fill="#000000" font-family="Courier" font-size="20" lengthAdjust="spacingAndGlyphs" textLength="10" x="84" y="142.7687">∅</text><rect fill="#FEFECE" filter="url(#fx7h3llb9uudc)" height="59.978" rx="12.5" ry="12.5" style="stroke: #A80036; stroke-width: 1.5;" width="52" x="12" y="250"/><line style="stroke: #A80036; stroke-width: 1.5;" x1="12" x2="64" y1="279.989" y2="279.989"/><text fill="#000000" font-family="Courier" font-size="20" font-style="italic" lengthAdjust="spacingAndGlyphs" textLength="24" x="26" y="273.7797">s1</text><text fill="#000000" font-family="Courier" font-size="20" lengthAdjust="spacingAndGlyphs" textLength="32" x="17" y="303.7687">〈t〉</text><rect fill="#FEFECE" filter="url(#fx7h3llb9uudc)" height="59.978" rx="12.5" ry="12.5" style="stroke: #A80036; stroke-width: 1.5;" width="50" x="88" y="411"/><line style="stroke: #A80036; stroke-width: 1.5;" x1="88" x2="138" y1="440.989" y2="440.989"/><text fill="#000000" font-family="Courier" font-size="20" font-style="italic" lengthAdjust="spacingAndGlyphs" textLength="24" x="101" y="434.7797">s2</text><text fill="#000000" font-family="Courier" font-size="20" lengthAdjust="spacingAndGlyphs" textLength="12" x="93" y="464.7687">t</text><rect fill="#FEFECE" filter="url(#fx7h3llb9uudc)" height="59.978" rx="12.5" ry="12.5" style="stroke: #A80036; stroke-width: 1.5;" width="120" x="53" y="572"/><line style="stroke: #A80036; stroke-width: 1.5;" x1="53" x2="173" y1="601.989" y2="601.989"/><text fill="#000000" font-family="Courier" font-size="20" font-style="italic" lengthAdjust="spacingAndGlyphs" textLength="24" x="101" y="595.7797">s3</text><text fill="#000000" font-family="Courier" font-size="20" lengthAdjust="spacingAndGlyphs" textLength="100" x="58" y="625.7687">t ∪ 〈t'〉</text><rect fill="#FFFF00" filter="url(#fx7h3llb9uudc)" height="59.978" rx="12.5" ry="12.5" style="stroke: #A80036; stroke-width: 1.5;" width="64" x="6" y="733"/><line style="stroke: #A80036; stroke-width: 1.5;" x1="6" x2="70" y1="762.989" y2="762.989"/><text fill="#000000" font-family="Courier" font-size="20" font-style="italic" lengthAdjust="spacingAndGlyphs" textLength="24" x="26" y="756.7797">s4</text><text fill="#000000" font-family="Courier" font-size="20" lengthAdjust="spacingAndGlyphs" textLength="44" x="11" y="786.7687">〈t'〉</text><rect fill="#FFFF00" filter="url(#fx7h3llb9uudc)" height="59.978" rx="12.5" ry="12.5" style="stroke: #A80036; stroke-width: 1.5;" width="100" x="138" y="733"/><line style="stroke: #A80036; stroke-width: 1.5;" x1="138" x2="238" y1="762.989" y2="762.989"/><text fill="#000000" font-family="Courier" font-size="20" font-style="italic" lengthAdjust="spacingAndGlyphs" textLength="24" x="176" y="756.7797">s5</text><text fill="#000000" font-family="Courier" font-size="20" lengthAdjust="spacingAndGlyphs" textLength="80" x="143" y="786.7687">t ∪ t'</text><!--link *start to s0--><path d="M104,28.136 C104,40.703 104,64.011 104,83.739 " fill="none" id="*start-s0" style="stroke: #A80036; stroke-width: 1.0;"/><polygon fill="#A80036" points="104,88.932,108,79.932,104,83.932,100,79.932,104,88.932" style="stroke: #A80036; stroke-width: 1.0;"/><!--link s0 to s1--><path d="M78.742,132.09 C61.2292,142 39.2774,157.839 29,179 C19.1014,199.381 21.5751,224.847 26.4091,244.978 " fill="none" id="s0-s1" style="stroke: #A80036; stroke-width: 1.0;"/><polygon fill="#A80036" points="27.6828,249.975,29.3345,240.2656,26.4471,245.1301,21.5827,242.2427,27.6828,249.975" style="stroke: #A80036; stroke-width: 1.0;"/><text fill="#000000" font-family="Courier" font-size="20" lengthAdjust="spacingAndGlyphs" textLength="84" x="48" y="198.7797">?out(t)</text><text fill="#000000" font-family="Courier" font-size="20" lengthAdjust="spacingAndGlyphs" textLength="120" x="30" y="218.7687">[SCHEDULE]</text><!--link s1 to s2--><path d="M37.5567,310.058 C38.3512,330.85 41.76,358.946 53,381 C60.3309,395.384 72.5131,408.344 83.9922,418.428 " fill="none" id="s1-s2" style="stroke: #A80036; stroke-width: 1.0;"/><polygon fill="#A80036" points="87.8502,421.736,83.6214,412.8412,84.0544,418.4815,78.4141,418.9145,87.8502,421.736" style="stroke: #A80036; stroke-width: 1.0;"/><text fill="#000000" font-family="Courier" font-size="20" lengthAdjust="spacingAndGlyphs" textLength="10" x="97" y="359.7797">τ</text><text fill="#000000" font-family="Courier" font-size="20" lengthAdjust="spacingAndGlyphs" textLength="96" x="54" y="379.7687">[INSERT]</text><!--link s2 to s0--><path d="M138.069,412.249 C144.924,402.97 151.44,392.138 155,381 C182.33,295.483 186.324,263.136 155,179 C150.329,166.454 141.659,154.798 132.775,145.216 " fill="none" id="s2-s0" style="stroke: #A80036; stroke-width: 1.0;"/><polygon fill="#A80036" points="129.234,141.513,132.5606,150.783,132.6886,145.1276,138.344,145.2556,129.234,141.513" style="stroke: #A80036; stroke-width: 1.0;"/><text fill="#000000" font-family="Courier" font-size="20" lengthAdjust="spacingAndGlyphs" textLength="72" x="196" y="279.2797">!in(t)</text><text fill="#000000" font-family="Courier" font-size="20" lengthAdjust="spacingAndGlyphs" textLength="108" x="178" y="299.2687">[CONSUME]</text><!--link s2 to s2--><path d="M138.278,427.465 C155.773,423.363 173,427.875 173,441 C173,452.792 159.095,457.631 143.582,455.518 " fill="none" id="s2-s2" style="stroke: #A80036; stroke-width: 1.0;"/><polygon fill="#A80036" points="138.278,454.535,146.398,460.1087,143.1942,455.4465,147.8564,452.2428,138.278,454.535" style="stroke: #A80036; stroke-width: 1.0;"/><text fill="#000000" font-family="Courier" font-size="20" lengthAdjust="spacingAndGlyphs" textLength="72" x="197" y="440.2797">!rd(t)</text><text fill="#000000" font-family="Courier" font-size="20" lengthAdjust="spacingAndGlyphs" textLength="108" x="179" y="460.2687">[OBSERVE]</text><!--link s2 to s3--><path d="M113,471.163 C113,498.086 113,538.094 113,566.575 " fill="none" id="s2-s3" style="stroke: #A80036; stroke-width: 1.0;"/><polygon fill="#A80036" points="113,571.753,117,562.753,113,566.753,109,562.753,113,571.753" style="stroke: #A80036; stroke-width: 1.0;"/><text fill="#000000" font-family="Courier" font-size="20" lengthAdjust="spacingAndGlyphs" textLength="96" x="126" y="520.7797">?out(t')</text><text fill="#000000" font-family="Courier" font-size="20" lengthAdjust="spacingAndGlyphs" textLength="120" x="114" y="540.7687">[SCHEDULE]</text><!--link s3 to s4--><path d="M60.4655,632.029 C50.1997,640.293 40.823,650.294 35,662 C24.9446,682.214 25.8739,707.6818 29.2254,727.8567 " fill="none" id="s3-s4" style="stroke: #A80036; stroke-width: 1.0;"/><polygon fill="#A80036" points="30.1244,732.8655,32.4713,723.3004,29.241,727.9442,24.5972,724.7138,30.1244,732.8655" style="stroke: #A80036; stroke-width: 1.0;"/><text fill="#000000" font-family="Courier" font-size="20" lengthAdjust="spacingAndGlyphs" textLength="72" x="54" y="681.7797">!in(t)</text><text fill="#000000" font-family="Courier" font-size="20" lengthAdjust="spacingAndGlyphs" textLength="108" x="36" y="701.7687">[CONSUME]</text><!--link s3 to s3--><path d="M173.3,587.004 C192.658,587.157 208,592.156 208,602 C208,610.921 195.399,615.863 178.629,616.825 " fill="none" id="s3-s3" style="stroke: #A80036; stroke-width: 1.0;"/><polygon fill="#A80036" points="173.3,616.996,182.4234,620.7059,178.2974,616.836,182.1674,612.71,173.3,616.996" style="stroke: #A80036; stroke-width: 1.0;"/><text fill="#000000" font-family="Courier" font-size="20" lengthAdjust="spacingAndGlyphs" textLength="72" x="232" y="601.2797">!rd(t)</text><text fill="#000000" font-family="Courier" font-size="20" lengthAdjust="spacingAndGlyphs" textLength="108" x="214" y="621.2687">[OBSERVE]</text><!--link s3 to s5--><path d="M132.175,632.136 C137.942,641.479 144.047,652 149,662 C159.598,683.398 169.358,708.4294 176.463,728.0956 " fill="none" id="s3-s5" style="stroke: #A80036; stroke-width: 1.0;"/><polygon fill="#A80036" points="178.211,732.9745,178.9409,723.1527,176.5245,728.2675,171.4097,725.8511,178.211,732.9745" style="stroke: #A80036; stroke-width: 1.0;"/><text fill="#000000" font-family="Courier" font-size="20" lengthAdjust="spacingAndGlyphs" textLength="10" x="210" y="681.7797">τ</text><text fill="#000000" font-family="Courier" font-size="20" lengthAdjust="spacingAndGlyphs" textLength="96" x="167" y="701.7687">[INSERT]</text><!--
@startuml
skinparam DefaultFontSize 20
skinparam StateFontStyle italics
skinparam DefaultFontName Courier
hide empty description

skinparam state {
  BackgroundColor<<Unexplored>> yellow
}

[*] - -> s0
state s0: ∅
s0 - -> s1: ?out(t)\n[SCHEDULE]
state s1: 〈t〉
s1 - -> s2: τ\n[INSERT]
state s2: t
s2 - -> s0: !in(t)\n[CONSUME]
s2 - -> s2: !rd(t)\n[OBSERVE]
s2 - -> s3: ?out(t')\n[SCHEDULE]
state s3: t ∪ 〈t'〉
s3 - -> s4: !in(t)\n[CONSUME]
s3 - -> s3: !rd(t)\n[OBSERVE]
s3 - -> s5: τ\n[INSERT]
state s4 <<Unexplored>>: 〈t'〉
state s5 <<Unexplored>>: t ∪ t'
@enduml

PlantUML version 1.2018.11(Sat Sep 22 16:43:53 UTC 2018)
(GPL source distribution)
Java Runtime: Java(TM) SE Runtime Environment
JVM: Java HotSpot(TM) 64-Bit Server VM
Java Version: 1.7.0_25-b15
Operating System: Linux
Default Encoding: UTF-8
Language: en
Country: US
--></g></svg>