<?xml version="1.0" encoding="UTF-8" standalone="no"?>
<svg xmlns="http://www.w3.org/2000/svg" xmlns:xlink="http://www.w3.org/1999/xlink" contentScriptType="application/ecmascript" contentStyleType="text/css" height="1303px" preserveAspectRatio="none" style="width:982px;height:1303px;" version="1.1" viewBox="0 0 982 1303" width="982px" zoomAndPan="magnify"><defs><filter height="300%" id="f1uwrjoa9kbirj" width="300%" x="-1" y="-1"><feGaussianBlur result="blurOut" stdDeviation="2.0"/><feColorMatrix in="blurOut" result="blurOut2" type="matrix" values="0 0 0 0 0 0 0 0 0 0 0 0 0 0 0 0 0 0 .4 0"/><feOffset dx="4.0" dy="4.0" in="blurOut2" result="blurOut3"/><feBlend in="SourceGraphic" in2="blurOut3" mode="normal"/></filter></defs><g><g id="EndingState"><rect fill="#808000" filter="url(#f1uwrjoa9kbirj)" height="91.9999" rx="12.5" ry="12.5" style="stroke: #A80036; stroke-width: 1.5;" width="308" x="28" y="7"/><line style="stroke: #A80036; stroke-width: 1.5;" x1="28" x2="336" y1="41" y2="41"/><text fill="#000000" font-family="Courier" font-size="20" font-style="italic" lengthAdjust="spacingAndGlyphs" textLength="132" x="116" y="31.26">EndingState</text><text fill="#000000" font-family="Courier" font-size="20" lengthAdjust="spacingAndGlyphs" textLength="288" x="33" y="64.52">Where no more transition</text><text fill="#000000" font-family="Courier" font-size="20" lengthAdjust="spacingAndGlyphs" textLength="240" x="33" y="88.5199">rules can be applied</text></g><ellipse cx="381" cy="53" fill="#000000" filter="url(#f1uwrjoa9kbirj)" rx="10" ry="10" style="stroke: none; stroke-width: 1.0;"/><g id="s0"><rect fill="#FEFECE" filter="url(#f1uwrjoa9kbirj)" height="68" rx="12.5" ry="12.5" style="stroke: #A80036; stroke-width: 1.5;" width="446" x="158" y="160"/><line style="stroke: #A80036; stroke-width: 1.5;" x1="158" x2="604" y1="194" y2="194"/><text fill="#000000" font-family="Courier" font-size="20" font-style="italic" lengthAdjust="spacingAndGlyphs" textLength="24" x="369" y="184.26">s0</text><text fill="#000000" font-family="Courier" font-size="20" lengthAdjust="spacingAndGlyphs" textLength="426" x="163" y="217.52">out(t).0 ∥ in(t̄).0 ∥ rd(t̄).0 ∥ ∅</text></g><g id="s1"><rect fill="#FEFECE" filter="url(#f1uwrjoa9kbirj)" height="68" rx="12.5" ry="12.5" style="stroke: #A80036; stroke-width: 1.5;" width="384" x="189" y="337"/><line style="stroke: #A80036; stroke-width: 1.5;" x1="189" x2="573" y1="371" y2="371"/><text fill="#000000" font-family="Courier" font-size="20" font-style="italic" lengthAdjust="spacingAndGlyphs" textLength="24" x="369" y="361.26">s1</text><text fill="#000000" font-family="Courier" font-size="20" lengthAdjust="spacingAndGlyphs" textLength="364" x="194" y="394.52">0 ∥ in(t̄).0 ∥ rd(t̄).0 ∥ 〈t〉</text></g><g id="s2"><rect fill="#FEFECE" filter="url(#f1uwrjoa9kbirj)" height="68" rx="12.5" ry="12.5" style="stroke: #A80036; stroke-width: 1.5;" width="364" x="199" y="514"/><line style="stroke: #A80036; stroke-width: 1.5;" x1="199" x2="563" y1="548" y2="548"/><text fill="#000000" font-family="Courier" font-size="20" font-style="italic" lengthAdjust="spacingAndGlyphs" textLength="24" x="369" y="538.26">s2</text><text fill="#000000" font-family="Courier" font-size="20" lengthAdjust="spacingAndGlyphs" textLength="344" x="204" y="571.52">0 ∥ in(t̄).0 ∥ rd(t̄).0 ∥ t</text></g><g id="s3"><rect fill="#FEFECE" filter="url(#f1uwrjoa9kbirj)" height="68" rx="12.5" ry="12.5" style="stroke: #A80036; stroke-width: 1.5;" width="324" x="7" y="691"/><line style="stroke: #A80036; stroke-width: 1.5;" x1="7" x2="331" y1="725" y2="725"/><text fill="#000000" font-family="Courier" font-size="20" font-style="italic" lengthAdjust="spacingAndGlyphs" textLength="24" x="157" y="715.26">s3</text><text fill="#000000" font-family="Courier" font-size="20" lengthAdjust="spacingAndGlyphs" textLength="304" x="12" y="748.52">0 ∥ 〈t〉.0 ∥ rd(t̄).0 ∥ ∅</text></g><g id="s4"><rect fill="#FEFECE" filter="url(#f1uwrjoa9kbirj)" height="68" rx="12.5" ry="12.5" style="stroke: #A80036; stroke-width: 1.5;" width="326" x="366" y="691"/><line style="stroke: #A80036; stroke-width: 1.5;" x1="366" x2="692" y1="725" y2="725"/><text fill="#000000" font-family="Courier" font-size="20" font-style="italic" lengthAdjust="spacingAndGlyphs" textLength="24" x="517" y="715.26">s4</text><text fill="#000000" font-family="Courier" font-size="20" lengthAdjust="spacingAndGlyphs" textLength="306" x="371" y="748.52">0 ∥ in(t̄).0 ∥ 〈t〉.0 ∥ t</text></g><g id="s5"><rect fill="#808000" filter="url(#f1uwrjoa9kbirj)" height="68" rx="12.5" ry="12.5" style="stroke: #A80036; stroke-width: 1.5;" width="280" x="29" y="868"/><line style="stroke: #A80036; stroke-width: 1.5;" x1="29" x2="309" y1="902" y2="902"/><text fill="#000000" font-family="Courier" font-size="20" font-style="italic" lengthAdjust="spacingAndGlyphs" textLength="24" x="157" y="892.26">s5</text><text fill="#000000" font-family="Courier" font-size="20" lengthAdjust="spacingAndGlyphs" textLength="260" x="34" y="925.52">0 ∥ 0 ∥ rd(t̄).0 ∥ ∅</text></g><g id="s6"><rect fill="#FEFECE" filter="url(#f1uwrjoa9kbirj)" height="68" rx="12.5" ry="12.5" style="stroke: #A80036; stroke-width: 1.5;" width="286" x="365" y="868"/><line style="stroke: #A80036; stroke-width: 1.5;" x1="365" x2="651" y1="902" y2="902"/><text fill="#000000" font-family="Courier" font-size="20" font-style="italic" lengthAdjust="spacingAndGlyphs" textLength="24" x="496" y="892.26">s6</text><text fill="#000000" font-family="Courier" font-size="20" lengthAdjust="spacingAndGlyphs" textLength="266" x="370" y="925.52">0 ∥ 〈t〉.0 ∥ 〈t〉.0 ∥ ∅</text></g><g id="s7"><rect fill="#FEFECE" filter="url(#f1uwrjoa9kbirj)" height="68" rx="12.5" ry="12.5" style="stroke: #A80036; stroke-width: 1.5;" width="282" x="686" y="868"/><line style="stroke: #A80036; stroke-width: 1.5;" x1="686" x2="968" y1="902" y2="902"/><text fill="#000000" font-family="Courier" font-size="20" font-style="italic" lengthAdjust="spacingAndGlyphs" textLength="24" x="815" y="892.26">s7</text><text fill="#000000" font-family="Courier" font-size="20" lengthAdjust="spacingAndGlyphs" textLength="262" x="691" y="925.52">0 ∥ in(t̄).0 ∥ 0 ∥ t</text></g><g id="s8"><rect fill="#FEFECE" filter="url(#f1uwrjoa9kbirj)" height="68" rx="12.5" ry="12.5" style="stroke: #A80036; stroke-width: 1.5;" width="242" x="385" y="1045"/><line style="stroke: #A80036; stroke-width: 1.5;" x1="385" x2="627" y1="1079" y2="1079"/><text fill="#000000" font-family="Courier" font-size="20" font-style="italic" lengthAdjust="spacingAndGlyphs" textLength="24" x="494" y="1069.26">s8</text><text fill="#000000" font-family="Courier" font-size="20" lengthAdjust="spacingAndGlyphs" textLength="222" x="390" y="1102.52">0 ∥ 0 ∥ 〈t〉.0 ∥ ∅</text></g><g id="s9"><rect fill="#FEFECE" filter="url(#f1uwrjoa9kbirj)" height="68" rx="12.5" ry="12.5" style="stroke: #A80036; stroke-width: 1.5;" width="242" x="662" y="1045"/><line style="stroke: #A80036; stroke-width: 1.5;" x1="662" x2="904" y1="1079" y2="1079"/><text fill="#000000" font-family="Courier" font-size="20" font-style="italic" lengthAdjust="spacingAndGlyphs" textLength="24" x="771" y="1069.26">s9</text><text fill="#000000" font-family="Courier" font-size="20" lengthAdjust="spacingAndGlyphs" textLength="222" x="667" y="1102.52">0 ∥ 〈t〉.0 ∥ 0 ∥ ∅</text></g><g id="s10"><rect fill="#808000" filter="url(#f1uwrjoa9kbirj)" height="68" rx="12.5" ry="12.5" style="stroke: #A80036; stroke-width: 1.5;" width="198" x="559" y="1222"/><line style="stroke: #A80036; stroke-width: 1.5;" x1="559" x2="757" y1="1256" y2="1256"/><text fill="#000000" font-family="Courier" font-size="20" font-style="italic" lengthAdjust="spacingAndGlyphs" textLength="36" x="640" y="1246.26">s10</text><text fill="#000000" font-family="Courier" font-size="20" lengthAdjust="spacingAndGlyphs" textLength="178" x="564" y="1279.52">0 ∥ 0 ∥ 0 ∥ ∅</text></g><!--MD5=[4d18111dc5bd2fb6e81ce20593253324]
link *start to s0--><path d="M381,63.12 C381,81.33 381,123.15 381,154.44 " fill="none" id="*start-to-s0" style="stroke: #A80036; stroke-width: 1.0;"/><polygon fill="#A80036" points="381,159.76,385,150.76,381,154.76,377,150.76,381,159.76" style="stroke: #A80036; stroke-width: 1.0;"/><!--MD5=[f6634d8150fdde17febcec4c775617e9]
link s0 to s1--><path d="M381,228.33 C381,257.76 381,300.686 381,331.563 " fill="none" id="s0-to-s1" style="stroke: #A80036; stroke-width: 1.0;"/><polygon fill="#A80036" points="381,336.796,385,327.796,381,331.796,377,327.796,381,336.796" style="stroke: #A80036; stroke-width: 1.0;"/><text fill="#000000" font-family="Courier" font-size="20" lengthAdjust="spacingAndGlyphs" textLength="72" x="382" y="277.52">out(t)</text><text fill="#000000" font-family="Courier" font-size="20" lengthAdjust="spacingAndGlyphs" textLength="70" x="383" y="301.52">[OUT₁]</text><!--MD5=[d077887d53ded09ce69bd222ebbe95e1]
link s1 to s2--><path d="M381,405.328 C381,434.764 381,477.686 381,508.563 " fill="none" id="s1-to-s2" style="stroke: #A80036; stroke-width: 1.0;"/><polygon fill="#A80036" points="381,513.796,385,504.796,381,508.796,377,504.796,381,513.796" style="stroke: #A80036; stroke-width: 1.0;"/><text fill="#000000" font-family="Courier" font-size="20" lengthAdjust="spacingAndGlyphs" textLength="10" x="425" y="454.52">τ</text><text fill="#000000" font-family="Courier" font-size="20" lengthAdjust="spacingAndGlyphs" textLength="96" x="382" y="478.52">[INSERT]</text><!--MD5=[1bb14e5b120dc78dcb30347d6f04721d]
link s2 to s3--><path d="M340.625,582.328 C304.229,612.372 250.814,656.465 213.264,687.461 " fill="none" id="s2-to-s3" style="stroke: #A80036; stroke-width: 1.0;"/><polygon fill="#A80036" points="209.224,690.796,218.7116,688.153,213.0805,687.6137,213.6199,681.9826,209.224,690.796" style="stroke: #A80036; stroke-width: 1.0;"/><text fill="#000000" font-family="Courier" font-size="20" lengthAdjust="spacingAndGlyphs" textLength="60" x="301" y="631.52">in(t)</text><text fill="#000000" font-family="Courier" font-size="20" lengthAdjust="spacingAndGlyphs" textLength="59" x="301.5" y="655.52">[IN₂]</text><!--MD5=[ee65693955cc9f8ec94b6168cfba75e9]
link s2 to s4--><path d="M409.186,582.328 C434.389,612.129 471.282,655.752 497.46,686.706 " fill="none" id="s2-to-s4" style="stroke: #A80036; stroke-width: 1.0;"/><polygon fill="#A80036" points="500.919,690.796,498.161,681.3412,497.6901,686.9784,492.0528,686.5075,500.919,690.796" style="stroke: #A80036; stroke-width: 1.0;"/><text fill="#000000" font-family="Courier" font-size="20" lengthAdjust="spacingAndGlyphs" textLength="60" x="473" y="631.52">rd(t)</text><text fill="#000000" font-family="Courier" font-size="20" lengthAdjust="spacingAndGlyphs" textLength="58" x="474" y="655.52">[RD₃]</text><!--MD5=[3d110a7cb1fdd126f71c0ad13eeeb6d3]
link s3 to s5--><path d="M169,759.328 C169,788.764 169,831.686 169,862.563 " fill="none" id="s3-to-s5" style="stroke: #A80036; stroke-width: 1.0;"/><polygon fill="#A80036" points="169,867.796,173,858.796,169,862.796,165,858.796,169,867.796" style="stroke: #A80036; stroke-width: 1.0;"/><text fill="#000000" font-family="Courier" font-size="20" lengthAdjust="spacingAndGlyphs" textLength="10" x="224.5" y="808.52">τ</text><text fill="#000000" font-family="Courier" font-size="20" lengthAdjust="spacingAndGlyphs" textLength="119" x="170" y="832.52">[COMPUTE₂]</text><!--MD5=[506c5cd2914b2c2d8ad57ab529afb2b4]
link s4 to s6--><path d="M525.001,759.328 C521.468,788.764 516.318,831.686 512.612,862.563 " fill="none" id="s4-to-s6" style="stroke: #A80036; stroke-width: 1.0;"/><polygon fill="#A80036" points="511.984,867.796,517.0278,859.3367,512.5797,862.8316,509.0848,858.3835,511.984,867.796" style="stroke: #A80036; stroke-width: 1.0;"/><text fill="#000000" font-family="Courier" font-size="20" lengthAdjust="spacingAndGlyphs" textLength="60" x="521" y="808.52">in(t)</text><text fill="#000000" font-family="Courier" font-size="20" lengthAdjust="spacingAndGlyphs" textLength="59" x="521.5" y="832.52">[IN₂]</text><!--MD5=[a4189ae8b026d59a9c42eaddfc28d04c]
link s4 to s7--><path d="M585.402,759.122 C637.019,789.434 713.198,834.17 766.165,865.275 " fill="none" id="s4-to-s7" style="stroke: #A80036; stroke-width: 1.0;"/><polygon fill="#A80036" points="770.576,867.865,764.8421,859.8573,766.2649,865.3323,760.7899,866.7551,770.576,867.865" style="stroke: #A80036; stroke-width: 1.0;"/><text fill="#000000" font-family="Courier" font-size="20" lengthAdjust="spacingAndGlyphs" textLength="10" x="768" y="808.52">τ</text><text fill="#000000" font-family="Courier" font-size="20" lengthAdjust="spacingAndGlyphs" textLength="118" x="714" y="832.52">[COMPUTE₃]</text><!--MD5=[5935c00f74567186c305b059efa0c716]
link s6 to s8--><path d="M504.86,936.32 C504.093,945.893 503.382,956.352 503,966 C502.03,990.471 502.74,1017.963 503.712,1039.585 " fill="none" id="s6-to-s8" style="stroke: #A80036; stroke-width: 1.0;"/><polygon fill="#A80036" points="503.95,1044.667,507.5239,1035.4894,503.7157,1039.6725,499.5327,1035.8643,503.95,1044.667" style="stroke: #A80036; stroke-width: 1.0;"/><text fill="#000000" font-family="Courier" font-size="20" lengthAdjust="spacingAndGlyphs" textLength="10" x="558.5" y="985.52">τ</text><text fill="#000000" font-family="Courier" font-size="20" lengthAdjust="spacingAndGlyphs" textLength="119" x="504" y="1009.52">[COMPUTE₂]</text><!--MD5=[74dd1bf10338064a941f778a9f529cb6]
link s6 to s9--><path d="M581.398,936.061 C597.451,944.759 613.857,954.865 628,966 C650.765,983.924 648.497,996.748 671,1015 C683.142,1024.848 697.03,1034.026 710.797,1042.162 " fill="none" id="s6-to-s9" style="stroke: #A80036; stroke-width: 1.0;"/><polygon fill="#A80036" points="715.458,1044.88,709.7006,1036.8892,711.1395,1042.36,705.6687,1043.7989,715.458,1044.88" style="stroke: #A80036; stroke-width: 1.0;"/><text fill="#000000" font-family="Courier" font-size="20" lengthAdjust="spacingAndGlyphs" textLength="10" x="726" y="985.52">τ</text><text fill="#000000" font-family="Courier" font-size="20" lengthAdjust="spacingAndGlyphs" textLength="118" x="672" y="1009.52">[COMPUTE₃]</text><!--MD5=[b9900f420b457bf7187ef58261cfda07]
link s7 to s9--><path d="M818.62,936.328 C811.189,965.886 800.338,1009.041 792.568,1039.945 " fill="none" id="s7-to-s9" style="stroke: #A80036; stroke-width: 1.0;"/><polygon fill="#A80036" points="791.348,1044.796,797.4232,1037.0441,792.5681,1039.9471,789.665,1035.092,791.348,1044.796" style="stroke: #A80036; stroke-width: 1.0;"/><text fill="#000000" font-family="Courier" font-size="20" lengthAdjust="spacingAndGlyphs" textLength="60" x="811" y="985.52">in(t)</text><text fill="#000000" font-family="Courier" font-size="20" lengthAdjust="spacingAndGlyphs" textLength="59" x="811.5" y="1009.52">[IN₂]</text><!--MD5=[9c5b1f16eeed6381540802497477ce99]
link s8 to s10--><path d="M523.174,1113.452 C536.127,1136.882 555.329,1168.141 577,1192 C585.565,1201.4301 595.665,1210.5075 605.775,1218.6935 " fill="none" id="s8-to-s10" style="stroke: #A80036; stroke-width: 1.0;"/><polygon fill="#A80036" points="609.797,1221.9051,605.2598,1213.1636,605.8898,1218.7852,600.2681,1219.4152,609.797,1221.9051" style="stroke: #A80036; stroke-width: 1.0;"/><text fill="#000000" font-family="Courier" font-size="20" lengthAdjust="spacingAndGlyphs" textLength="10" x="632" y="1162.52">τ</text><text fill="#000000" font-family="Courier" font-size="20" lengthAdjust="spacingAndGlyphs" textLength="118" x="578" y="1186.52">[COMPUTE₃]</text><!--MD5=[2227d98c108b21e40a2486f23985f175]
link s9 to s10--><path d="M759.194,1113.328 C737.908,1143.129 706.749,1186.752 684.639,1217.7057 " fill="none" id="s9-to-s10" style="stroke: #A80036; stroke-width: 1.0;"/><polygon fill="#A80036" points="681.717,1221.796,690.2032,1216.7976,684.6233,1217.7274,683.6935,1212.1475,681.717,1221.796" style="stroke: #A80036; stroke-width: 1.0;"/><text fill="#000000" font-family="Courier" font-size="20" lengthAdjust="spacingAndGlyphs" textLength="10" x="790.5" y="1162.52">τ</text><text fill="#000000" font-family="Courier" font-size="20" lengthAdjust="spacingAndGlyphs" textLength="119" x="736" y="1186.52">[COMPUTE₂]</text><!--MD5=[d1296fce01363747d8b4ab7389368735]
@startuml
skinparam DefaultFontSize 20
skinparam StateFontStyle italics
skinparam DefaultFontName Courier
hide empty description

skinparam state {
  BackgroundColor<<Ending>> olive
}

state EndingState <<Ending>>: Where no more transition\nrules can be applied

[*] - -> s0
state s0: out(t).0 ∥ in(t̄).0 ∥ rd(t̄).0 ∥ ∅
s0 - -> s1: out(t)\n[OUT₁]

state s1: 0 ∥ in(t̄).0 ∥ rd(t̄).0 ∥ 〈t〉
s1 - -> s2: τ\n[INSERT]

state s2: 0 ∥ in(t̄).0 ∥ rd(t̄).0 ∥ t
s2 - -> s3: in(t)\n[IN₂]
s2 - -> s4: rd(t)\n[RD₃]

state s3: 0 ∥ 〈t〉.0 ∥ rd(t̄).0 ∥ ∅
s3 - -> s5: τ\n[COMPUTE₂]

state s4: 0 ∥ in(t̄).0 ∥ 〈t〉.0 ∥ t
s4 - -> s6: in(t)\n[IN₂]
s4 - -> s7: τ\n[COMPUTE₃]

state s5 <<Ending>>: 0 ∥ 0 ∥ rd(t̄).0 ∥ ∅

state s6: 0 ∥ 〈t〉.0 ∥ 〈t〉.0 ∥ ∅
s6 - -> s8: τ\n[COMPUTE₂]
s6 - -> s9: τ\n[COMPUTE₃]

state s7: 0 ∥ in(t̄).0 ∥ 0 ∥ t
s7 - -> s9: in(t)\n[IN₂]

state s8: 0 ∥ 0 ∥ 〈t〉.0 ∥ ∅
s8 - -> s10: τ\n[COMPUTE₃]

state s9: 0 ∥ 〈t〉.0 ∥ 0 ∥ ∅
s9 - -> s10: τ\n[COMPUTE₂]

state s10 <<Ending>>: 0 ∥ 0 ∥ 0 ∥ ∅
@enduml

PlantUML version 1.2020.20beta13(Unknown compile time)
(GPL source distribution)
Java Runtime: Java(TM) SE Runtime Environment
JVM: Java HotSpot(TM) 64-Bit Server VM
Default Encoding: UTF-8
Language: en
Country: US
--></g></svg>