<?xml version="1.0" encoding="UTF-8" standalone="no"?>
<svg xmlns="http://www.w3.org/2000/svg" xmlns:xlink="http://www.w3.org/1999/xlink" contentScriptType="application/ecmascript" contentStyleType="text/css" height="964px" preserveAspectRatio="none" style="width:562px;height:964px;" version="1.1" viewBox="0 0 562 964" width="562px" zoomAndPan="magnify"><defs><filter height="300%" id="f1set3iq27429j" width="300%" x="-1" y="-1"><feGaussianBlur result="blurOut" stdDeviation="2.0"/><feColorMatrix in="blurOut" result="blurOut2" type="matrix" values="0 0 0 0 0 0 0 0 0 0 0 0 0 0 0 0 0 0 .4 0"/><feOffset dx="4.0" dy="4.0" in="blurOut2" result="blurOut3"/><feBlend in="SourceGraphic" in2="blurOut3" mode="normal"/></filter></defs><g><ellipse cx="278" cy="18" fill="#000000" filter="url(#f1set3iq27429j)" rx="10" ry="10" style="stroke: none; stroke-width: 1.0;"/><rect fill="#FEFECE" filter="url(#f1set3iq27429j)" height="59.978" rx="12.5" ry="12.5" style="stroke: #A80036; stroke-width: 1.5;" width="544" x="6" y="89"/><line style="stroke: #A80036; stroke-width: 1.5;" x1="6" x2="550" y1="118.989" y2="118.989"/><text fill="#000000" font-family="Courier" font-size="20" font-style="italic" lengthAdjust="spacingAndGlyphs" textLength="24" x="266" y="112.7797">s0</text><text fill="#000000" font-family="Courier" font-size="20" lengthAdjust="spacingAndGlyphs" textLength="524" x="11" y="142.7687">out(t₁).(rd(t̄₂)+ in(t̄₂)).〈t₂〉.in(t̄₃).rd(t̄₁).0</text><rect fill="#FEFECE" filter="url(#f1set3iq27429j)" height="59.978" rx="12.5" ry="12.5" style="stroke: #A80036; stroke-width: 1.5;" width="450" x="53" y="250"/><line style="stroke: #A80036; stroke-width: 1.5;" x1="53" x2="503" y1="279.989" y2="279.989"/><text fill="#000000" font-family="Courier" font-size="20" font-style="italic" lengthAdjust="spacingAndGlyphs" textLength="24" x="266" y="273.7797">s1</text><text fill="#000000" font-family="Courier" font-size="20" lengthAdjust="spacingAndGlyphs" textLength="430" x="58" y="303.7687">(rd(t̄₂)+ in(t̄₂)).〈t₂〉.in(t̄₃).rd(t̄₁).0</text><rect fill="#FEFECE" filter="url(#f1set3iq27429j)" height="59.978" rx="12.5" ry="12.5" style="stroke: #A80036; stroke-width: 1.5;" width="250" x="153" y="411"/><line style="stroke: #A80036; stroke-width: 1.5;" x1="153" x2="403" y1="440.989" y2="440.989"/><text fill="#000000" font-family="Courier" font-size="20" font-style="italic" lengthAdjust="spacingAndGlyphs" textLength="24" x="266" y="434.7797">s2</text><text fill="#000000" font-family="Courier" font-size="20" lengthAdjust="spacingAndGlyphs" textLength="230" x="158" y="464.7687">〈t₂〉.in(t̄₃).rd(t̄₁).0</text><rect fill="#FEFECE" filter="url(#f1set3iq27429j)" height="59.978" rx="12.5" ry="12.5" style="stroke: #A80036; stroke-width: 1.5;" width="196" x="180" y="572"/><line style="stroke: #A80036; stroke-width: 1.5;" x1="180" x2="376" y1="601.989" y2="601.989"/><text fill="#000000" font-family="Courier" font-size="20" font-style="italic" lengthAdjust="spacingAndGlyphs" textLength="24" x="266" y="595.7797">s3</text><text fill="#000000" font-family="Courier" font-size="20" lengthAdjust="spacingAndGlyphs" textLength="176" x="185" y="625.7687">in(t̄₃).rd(t̄₁).0</text><rect fill="#FEFECE" filter="url(#f1set3iq27429j)" height="59.978" rx="12.5" ry="12.5" style="stroke: #A80036; stroke-width: 1.5;" width="114" x="221" y="733"/><line style="stroke: #A80036; stroke-width: 1.5;" x1="221" x2="335" y1="762.989" y2="762.989"/><text fill="#000000" font-family="Courier" font-size="20" font-style="italic" lengthAdjust="spacingAndGlyphs" textLength="24" x="266" y="756.7797">s4</text><text fill="#000000" font-family="Courier" font-size="20" lengthAdjust="spacingAndGlyphs" textLength="94" x="226" y="786.7687">rd(t̄₁).0</text><rect fill="#808000" filter="url(#f1set3iq27429j)" height="59.978" rx="12.5" ry="12.5" style="stroke: #A80036; stroke-width: 1.5;" width="50" x="253" y="894"/><line style="stroke: #A80036; stroke-width: 1.5;" x1="253" x2="303" y1="923.989" y2="923.989"/><text fill="#000000" font-family="Courier" font-size="20" font-style="italic" lengthAdjust="spacingAndGlyphs" textLength="24" x="266" y="917.7797">s5</text><text fill="#000000" font-family="Courier" font-size="20" lengthAdjust="spacingAndGlyphs" textLength="12" x="258" y="947.7687">0</text><!--link *start to s0--><path d="M278,28.136 C278,40.703 278,64.011 278,83.739 " fill="none" id="*start-s0" style="stroke: #A80036; stroke-width: 1.0;"/><polygon fill="#A80036" points="278,88.932,282,79.932,278,83.932,274,79.932,278,88.932" style="stroke: #A80036; stroke-width: 1.0;"/><!--link s0 to s1--><path d="M278,149.163 C278,176.086 278,216.094 278,244.575 " fill="none" id="s0-s1" style="stroke: #A80036; stroke-width: 1.0;"/><polygon fill="#A80036" points="278,249.753,282,240.753,278,244.753,274,240.753,278,249.753" style="stroke: #A80036; stroke-width: 1.0;"/><text fill="#000000" font-family="Courier" font-size="20" lengthAdjust="spacingAndGlyphs" textLength="94" x="279" y="198.7797">!out(t₁)</text><text fill="#000000" font-family="Courier" font-size="20" lengthAdjust="spacingAndGlyphs" textLength="84" x="284" y="218.7687">[WRITE]</text><!--link s1 to s2--><path d="M220.219,310.317 C209.665,318.431 200.081,328.298 194,340 C185.598,356.169 185.598,364.831 194,381 C199.321,391.239 207.324,400.073 216.312,407.558 " fill="none" id="s1-s2" style="stroke: #A80036; stroke-width: 1.0;"/><polygon fill="#A80036" points="220.219,410.683,215.6892,401.9377,216.3144,407.5599,210.6922,408.1851,220.219,410.683" style="stroke: #A80036; stroke-width: 1.0;"/><text fill="#000000" font-family="Courier" font-size="20" lengthAdjust="spacingAndGlyphs" textLength="82" x="214" y="359.7797">?rd(t̄₂)</text><text fill="#000000" font-family="Courier" font-size="20" lengthAdjust="spacingAndGlyphs" textLength="120" x="195" y="379.7687">[CHOICE-L]</text><!--link s1 to s2--><path d="M304.172,310.261 C310.616,319.195 316.632,329.461 320,340 C325.547,357.357 325.547,363.643 320,381 C317.158,389.893 312.432,398.59 307.153,406.457 " fill="none" id="s1-s2" style="stroke: #A80036; stroke-width: 1.0;"/><polygon fill="#A80036" points="304.172,410.739,312.5977,405.6392,307.0293,406.6359,306.0327,401.0675,304.172,410.739" style="stroke: #A80036; stroke-width: 1.0;"/><text fill="#000000" font-family="Courier" font-size="20" lengthAdjust="spacingAndGlyphs" textLength="82" x="344" y="359.7797">?in(t̄₂)</text><text fill="#000000" font-family="Courier" font-size="20" lengthAdjust="spacingAndGlyphs" textLength="120" x="325" y="379.7687">[CHOICE-R]</text><!--link s2 to s3--><path d="M278,471.163 C278,498.086 278,538.094 278,566.575 " fill="none" id="s2-s3" style="stroke: #A80036; stroke-width: 1.0;"/><polygon fill="#A80036" points="278,571.753,282,562.753,278,566.753,274,562.753,278,571.753" style="stroke: #A80036; stroke-width: 1.0;"/><text fill="#000000" font-family="Courier" font-size="20" lengthAdjust="spacingAndGlyphs" textLength="10" x="328" y="520.7797">τ</text><text fill="#000000" font-family="Courier" font-size="20" lengthAdjust="spacingAndGlyphs" textLength="108" x="279" y="540.7687">[COMPUTE]</text><!--link s3 to s4--><path d="M278,632.163 C278,659.086 278,699.094 278,727.575 " fill="none" id="s3-s4" style="stroke: #A80036; stroke-width: 1.0;"/><polygon fill="#A80036" points="278,732.753,282,723.753,278,727.753,274,723.753,278,732.753" style="stroke: #A80036; stroke-width: 1.0;"/><text fill="#000000" font-family="Courier" font-size="20" lengthAdjust="spacingAndGlyphs" textLength="82" x="279" y="681.7797">?in(t̄₃)</text><text fill="#000000" font-family="Courier" font-size="20" lengthAdjust="spacingAndGlyphs" textLength="72" x="284" y="701.7687">[TAKE]</text><!--link s4 to s5--><path d="M278,793.163 C278,820.086 278,860.0942 278,888.575 " fill="none" id="s4-s5" style="stroke: #A80036; stroke-width: 1.0;"/><polygon fill="#A80036" points="278,893.753,282,884.753,278,888.753,274,884.753,278,893.753" style="stroke: #A80036; stroke-width: 1.0;"/><text fill="#000000" font-family="Courier" font-size="20" lengthAdjust="spacingAndGlyphs" textLength="82" x="279" y="842.7797">?rd(t̄₁)</text><text fill="#000000" font-family="Courier" font-size="20" lengthAdjust="spacingAndGlyphs" textLength="72" x="284" y="862.7687">[READ]</text><!--
@startuml
skinparam DefaultFontSize 20
skinparam StateFontStyle italics
skinparam DefaultFontName Courier
hide empty description

skinparam state {
  BackgroundColor<<Ending>> olive
  BackgroundColor<<Unexplored>> yellow
}

[*] - -> s0
state s0: out(t₁).(rd(t̄₂)+ in(t̄₂)).〈t₂〉.in(t̄₃).rd(t̄₁).0
s0 - -> s1: !out(t₁)\n[WRITE]

state s1 : (rd(t̄₂)+ in(t̄₂)).〈t₂〉.in(t̄₃).rd(t̄₁).0
s1 - -> s2: ?rd(t̄₂)\n[CHOICE-L]
s1 - -> s2: ?in(t̄₂)\n[CHOICE-R]

state s2 : 〈t₂〉.in(t̄₃).rd(t̄₁).0
s2 - -> s3: τ\n[COMPUTE]

state s3 : in(t̄₃).rd(t̄₁).0
s3 - -> s4: ?in(t̄₃)\n[TAKE]

state s4 : rd(t̄₁).0
s4 - -> s5: ?rd(t̄₁)\n[READ]

state s5 <<Ending>>: 0
@enduml

PlantUML version 1.2018.12(Sun Oct 21 10:15:15 UTC 2018)
(GPL source distribution)
Java Runtime: Java(TM) SE Runtime Environment
JVM: Java HotSpot(TM) 64-Bit Server VM
Java Version: 1.7.0_25-b15
Operating System: Linux
Default Encoding: UTF-8
Language: en
Country: US
--></g></svg>